{"glyphs":{"0":{"ha":597,"x_min":34,"x_max":564,"o":"m 297 710 l 297 710 q 439 667 379 710 q 531 545 499 625 q 564 351 564 465 l 564 351 q 530 153 564 234 q 436 31 496 73 q 296 -10 376 -10 l 296 -10 q 153 34 212 -10 q 64 159 95 77 q 34 357 34 241 l 34 357 q 66 544 34 465 q 157 666 98 623 q 297 710 217 710 m 445 322 l 445 322 q 428 540 445 456 q 378 663 412 624 q 294 702 345 702 l 294 702 q 215 668 246 702 q 168 564 183 635 q 152 382 152 493 l 152 382 q 169 162 152 247 q 218 37 185 77 q 303 -2 252 -2 l 303 -2 q 378 28 346 -2 q 427 130 410 59 q 445 322 445 201"},"1":{"ha":359,"x_min":27,"x_max":338,"o":"m 37 666 l 37 666 l 113 664 q 123 660 120 664 q 127 647 127 656 l 127 647 l 127 45 q 120 26 127 32 q 103 18 114 20 l 103 18 l 34 8 q 27 4 27 7 l 27 4 q 29 1 27 3 q 33 0 31 0 l 33 0 l 332 0 q 337 1 335 0 q 338 4 338 2 l 338 4 q 332 7 338 6 l 332 7 l 263 18 q 247 27 253 20 q 241 45 241 33 l 241 45 l 241 718 q 236 726 241 726 l 236 726 q 233 724 234 726 q 229 718 231 722 l 229 718 q 187 684 213 692 q 112 676 160 676 l 112 676 l 37 674 q 33 673 35 674 q 32 670 32 672 l 32 670 q 33 667 32 669 q 37 666 34 666"},"2":{"ha":538,"x_min":32,"x_max":513,"o":"m 236 228 l 90 141 l 87 145 l 186 215 q 291 308 251 261 q 351 409 332 356 q 371 527 371 463 l 371 527 q 355 628 371 589 q 314 685 340 667 q 259 704 289 704 l 259 704 q 178 673 205 704 q 151 593 151 643 l 151 593 l 151 535 q 135 488 151 505 q 97 471 120 471 l 97 471 q 59 486 73 471 q 45 528 45 500 l 45 528 q 72 616 45 574 q 152 684 100 658 q 280 710 205 710 l 280 710 q 393 687 346 710 q 464 624 439 664 q 488 533 488 585 l 488 533 q 463 433 488 481 q 383 337 439 386 q 236 228 328 288 l 236 228 m 32 48 l 32 48 q 70 133 32 100 q 176 166 107 166 l 176 166 q 236 156 205 166 q 299 131 268 145 q 361 107 331 118 q 418 97 391 97 l 418 97 q 474 113 454 97 q 508 170 495 129 l 508 170 q 510 173 509 173 q 511 173 511 174 l 511 173 q 513 172 513 173 q 513 170 513 171 l 513 170 q 485 62 504 101 q 438 8 466 24 q 375 -8 411 -8 l 375 -8 q 320 3 345 -8 q 272 41 296 14 q 221 115 249 68 l 221 115 q 186 150 200 140 q 163 160 173 160 l 163 160 q 138 143 147 160 q 129 84 130 127 l 129 84 q 119 28 127 48 q 100 1 112 9 q 72 -7 88 -7 l 72 -7 q 43 8 53 -7 q 32 48 32 23"},"3":{"ha":498,"x_min":26,"x_max":484,"o":"m 478 683 l 189 374 l 187 379 q 197 379 191 379 q 210 379 204 379 q 219 379 217 379 l 219 379 q 353 359 297 379 q 440 300 409 340 q 470 196 470 260 l 470 196 q 441 87 470 133 q 359 15 411 41 q 237 -10 307 -10 l 237 -10 q 122 10 170 -10 q 50 62 75 29 q 26 138 26 96 l 26 138 q 42 190 26 170 q 81 210 58 210 l 81 210 q 113 195 100 210 q 127 156 127 180 l 127 156 l 127 99 q 155 25 127 54 q 240 -4 184 -4 l 240 -4 q 306 16 278 -3 q 349 74 334 35 q 365 174 365 113 l 365 174 q 324 321 365 273 q 217 369 283 369 l 217 369 l 187 369 q 182 370 184 369 q 180 374 180 372 l 180 374 q 182 378 180 376 q 187 383 184 379 l 187 383 l 397 616 l 397 612 l 102 612 q 90 608 95 612 q 82 596 85 604 l 82 596 l 61 519 q 59 516 61 517 q 56 515 58 515 l 56 515 q 54 517 55 515 q 53 521 53 519 l 53 521 l 74 687 q 78 696 75 693 q 87 700 81 700 l 87 700 l 478 700 q 482 699 481 700 q 484 694 484 697 l 484 694 q 483 689 484 692 q 478 683 481 687 l 478 683"},"4":{"ha":549,"x_min":9,"x_max":516,"o":"m 296 32 l 296 389 q 297 395 296 393 q 301 401 299 398 l 301 401 l 399 491 q 404 495 402 494 q 407 496 405 496 l 407 496 q 409 495 409 496 q 410 491 410 494 l 410 491 l 410 33 q 414 22 410 26 q 426 17 419 18 l 426 17 l 488 8 q 491 6 490 7 q 492 4 492 6 l 492 4 q 491 1 492 2 q 487 0 490 0 l 487 0 l 218 0 q 213 4 213 0 l 213 4 q 218 7 213 6 l 218 7 l 283 17 q 293 22 290 18 q 296 32 296 25 l 296 32 m 12 181 l 247 464 q 265 489 259 476 q 271 519 271 502 l 271 519 q 263 548 271 534 q 246 576 256 562 q 229 606 236 590 q 221 640 221 622 l 221 640 q 231 678 221 661 q 258 706 240 695 q 300 716 275 716 l 300 716 q 355 694 335 716 q 376 638 376 671 l 376 638 q 368 596 376 616 q 344 554 361 577 q 296 500 327 531 l 296 500 l 17 174 l 16 180 l 511 180 q 514 179 513 180 q 516 176 516 178 l 516 176 q 509 171 516 171 l 509 171 l 13 171 q 10 172 11 171 q 9 175 9 174 l 9 175 q 9 178 9 177 q 12 181 10 180 l 12 181"},"5":{"ha":517,"x_min":42,"x_max":482,"o":"m 42 144 l 42 144 q 59 188 42 170 q 98 206 75 206 l 98 206 q 132 190 118 206 q 145 148 145 174 l 145 148 l 145 81 q 172 19 145 44 q 250 -5 199 -5 l 250 -5 q 335 47 301 -5 q 369 199 369 100 l 369 199 q 337 354 369 301 q 246 407 305 407 l 246 407 q 186 393 215 407 q 133 356 157 380 q 92 301 109 333 l 92 301 q 88 297 90 298 q 83 295 86 295 l 83 295 q 79 297 81 295 q 78 302 78 299 l 78 302 l 78 703 q 79 709 78 707 q 85 711 81 711 l 85 711 q 91 710 88 711 q 97 707 94 709 l 97 707 q 164 681 129 692 q 237 666 200 671 q 313 661 275 661 l 313 661 q 417 678 372 661 q 473 726 463 694 l 473 726 q 475 728 474 727 q 477 729 476 729 l 477 729 q 479 728 479 729 q 480 725 480 727 l 480 725 q 450 629 473 666 q 387 576 428 593 q 286 560 346 560 l 286 560 q 212 565 248 560 q 142 581 175 571 q 83 608 109 592 l 83 608 l 87 611 l 87 302 l 83 303 q 131 364 104 339 q 194 403 158 390 q 274 417 229 417 l 274 417 q 383 391 336 417 q 456 319 430 365 q 482 211 482 273 l 482 211 q 452 94 482 144 q 369 17 422 44 q 245 -10 316 -10 l 245 -10 q 138 11 184 -10 q 67 66 93 31 q 42 144 42 101"},"6":{"ha":553,"x_min":35,"x_max":522,"o":"m 311 710 l 311 710 q 421 691 377 710 q 487 641 465 673 q 510 571 510 610 l 510 571 q 493 519 510 538 q 447 501 476 501 l 447 501 q 402 519 420 501 q 384 571 384 537 l 384 571 l 384 624 q 363 683 384 661 q 304 705 343 705 l 304 705 q 244 684 272 705 q 195 617 216 663 q 162 496 174 571 q 150 314 150 422 l 150 314 q 169 125 150 195 q 219 25 187 55 q 290 -5 250 -5 l 290 -5 q 378 46 345 -5 q 412 205 412 96 l 412 205 q 374 354 412 303 q 276 405 336 405 l 276 405 q 212 387 242 405 q 163 336 182 369 q 145 258 145 303 l 145 258 l 138 260 q 162 347 138 310 q 228 405 187 384 q 322 425 270 425 l 322 425 q 426 401 381 425 q 497 331 471 378 q 521 218 522 285 l 521 218 q 490 99 520 150 q 409 19 461 47 q 286 -10 357 -10 l 286 -10 q 158 27 215 -10 q 68 139 101 65 q 35 322 35 213 l 35 322 q 72 538 35 452 q 171 667 109 625 q 311 710 234 710"},"7":{"ha":465,"x_min":24,"x_max":469,"o":"m 214 308 l 406 616 l 407 610 l 71 610 q 62 607 66 610 q 56 597 58 604 l 56 597 l 34 527 q 31 523 33 525 q 28 522 29 522 l 28 522 q 25 523 26 522 q 25 528 24 525 l 25 528 l 48 691 q 50 698 48 695 q 56 700 52 700 l 56 700 l 462 700 q 467 699 466 700 q 469 695 469 697 l 469 695 q 467 689 469 692 q 463 681 466 685 l 463 681 l 291 389 q 262 339 275 363 q 241 292 250 315 q 228 248 232 269 q 223 207 223 227 l 223 207 q 231 164 223 184 q 248 126 238 144 q 265 91 258 109 q 273 55 273 74 l 273 55 q 255 9 273 28 q 206 -9 238 -9 l 206 -9 q 158 15 175 -9 q 141 85 141 39 l 141 85 q 148 154 141 118 q 172 228 156 190 q 214 308 188 267 l 214 308"},"8":{"ha":525,"x_min":35,"x_max":500,"o":"m 263 -10 l 263 -10 q 143 10 193 -10 q 67 68 93 31 q 40 153 40 105 l 40 153 q 57 223 40 190 q 111 284 73 257 q 213 326 148 311 l 213 326 l 215 322 q 159 256 178 300 q 140 168 140 213 l 140 168 q 175 38 140 80 q 268 -4 211 -4 l 268 -4 q 360 31 327 -4 q 393 127 393 65 l 393 127 q 378 189 393 161 q 331 240 363 217 q 250 281 299 264 l 250 281 q 85 381 135 324 q 35 515 35 438 l 35 515 q 64 615 35 571 q 146 685 94 660 q 267 710 198 710 l 267 710 q 393 688 341 710 q 473 626 446 667 q 500 529 500 585 l 500 529 q 477 438 500 479 q 411 369 453 397 q 314 331 370 341 l 314 331 l 313 335 q 358 374 338 348 q 390 437 378 401 q 403 517 403 474 l 403 517 q 386 617 403 575 q 338 682 369 660 q 264 705 307 705 l 264 705 q 197 687 226 705 q 150 638 167 670 q 133 566 133 607 l 133 566 q 149 483 133 520 q 201 418 165 447 q 296 369 237 390 l 296 369 q 451 280 404 331 q 498 174 498 230 l 498 174 q 469 77 498 118 q 386 12 439 35 q 263 -10 333 -10"},"9":{"ha":557,"x_min":34,"x_max":522,"o":"m 244 -10 l 244 -10 q 134 9 179 -10 q 67 59 90 28 q 45 129 45 91 l 45 129 q 61 181 45 162 q 108 199 78 199 l 108 199 q 153 181 136 199 q 171 126 171 162 l 171 126 l 171 76 q 191 19 171 42 q 251 -4 212 -4 l 251 -4 q 330 34 295 -4 q 386 158 365 72 q 407 386 407 243 l 407 386 q 388 575 407 505 q 339 674 370 644 q 268 704 308 704 l 268 704 q 177 653 212 704 q 142 496 142 602 l 142 496 q 179 346 142 397 q 275 296 217 296 l 275 296 q 342 313 311 296 q 393 364 373 331 q 412 443 412 398 l 412 443 l 419 440 q 396 353 419 391 q 331 296 373 316 q 233 275 289 275 l 233 275 q 130 299 175 275 q 59 369 85 323 q 34 482 34 416 l 34 482 q 64 600 34 548 q 147 681 94 651 q 270 710 200 710 l 270 710 q 399 673 343 710 q 489 562 456 636 q 522 378 522 488 l 522 378 q 485 162 522 248 q 385 33 448 76 q 244 -10 322 -10"}," ":{"ha":164,"x_min":0,"x_max":164,"o":""},"!":{"ha":221,"x_min":47,"x_max":173,"o":"m 112 725 l 112 725 q 158 711 144 725 q 173 676 173 697 l 173 676 q 171 654 173 666 q 167 630 170 641 l 167 630 l 112 198 q 111 196 112 197 q 109 195 111 195 l 109 195 q 107 196 108 195 q 106 198 107 197 l 106 198 l 53 631 q 49 655 50 646 q 48 676 48 665 l 48 676 q 64 711 48 698 q 112 725 80 725 m 107 -5 l 107 -5 q 76 3 90 -5 q 55 27 63 12 q 47 59 47 42 l 47 59 q 55 91 47 77 q 77 114 63 106 q 106 123 90 123 l 106 123 q 137 114 124 123 q 159 91 151 106 q 167 59 167 77 l 167 59 q 159 27 167 42 q 137 3 151 12 q 107 -5 124 -5"},"\"":{"ha":266,"x_min":16,"x_max":250,"o":"m 196 457 l 196 457 q 192 458 194 457 q 190 463 190 460 l 190 463 l 153 718 q 159 770 147 752 q 199 789 171 789 l 199 789 q 238 770 227 789 q 243 718 250 752 l 243 718 l 201 463 q 199 458 200 459 q 196 457 197 457 m 65 456 l 65 456 q 61 458 63 456 q 59 463 60 459 l 59 463 l 23 717 q 28 770 16 751 q 69 788 41 788 l 69 788 q 108 770 96 788 q 112 718 120 751 l 112 718 l 71 463 q 68 457 70 459 q 65 456 67 456"},"#":{"ha":555,"x_min":17,"x_max":536,"o":"m 206 347 l 206 347 q 197 312 204 338 q 180 252 190 287 q 160 178 170 217 q 139 104 149 140 q 122 42 130 69 q 112 5 115 16 l 112 5 q 104 -1 110 -2 l 104 -1 q 100 2 101 0 q 100 8 99 5 l 100 8 q 110 44 103 18 q 128 105 118 70 q 150 178 139 140 q 171 252 161 216 q 189 313 182 287 q 200 350 197 339 l 200 350 q 210 388 203 361 q 226 450 217 415 q 245 524 235 486 q 264 598 255 563 q 279 660 273 633 q 289 697 286 686 l 289 697 q 298 702 292 704 l 298 702 q 301 699 301 701 q 302 694 302 697 l 302 694 q 290 654 298 681 q 273 591 283 627 q 253 518 264 556 q 233 445 243 480 q 216 384 224 410 q 206 347 209 358 m 298 444 l 298 444 q 331 444 308 444 q 384 444 354 444 q 443 445 414 445 q 496 446 473 446 q 528 446 519 446 l 528 446 q 534 444 532 446 q 536 440 536 443 l 536 440 q 534 435 536 437 q 528 433 532 433 l 528 433 q 494 433 518 433 q 441 434 471 434 q 382 436 411 435 q 330 436 352 436 q 298 437 307 437 l 298 437 q 265 436 289 437 q 211 436 242 436 q 148 435 180 435 q 92 434 117 434 q 57 434 67 434 l 57 434 q 51 435 53 434 q 49 440 49 437 l 49 440 q 51 445 49 443 q 56 446 53 446 l 56 446 q 89 446 65 446 q 145 445 114 446 q 208 444 177 445 q 264 444 240 444 q 298 444 289 444 m 266 254 l 266 254 q 233 254 257 254 q 179 253 210 254 q 116 252 148 253 q 60 251 85 252 q 25 251 35 251 l 25 251 q 19 253 21 251 q 17 258 17 255 l 17 258 q 19 262 17 261 q 25 264 21 264 l 25 264 q 58 263 33 264 q 113 263 82 263 q 176 262 145 262 q 232 261 208 262 q 266 261 257 261 l 266 261 q 299 261 276 261 q 352 262 322 262 q 411 263 382 262 q 464 263 441 263 q 496 264 488 264 l 496 264 q 502 262 500 264 q 504 257 504 261 l 504 257 q 502 253 504 255 q 496 251 500 251 l 496 251 q 462 251 486 251 q 409 252 438 251 q 350 253 379 253 q 298 254 320 254 q 266 254 275 254 m 272 5 l 272 5 q 264 -1 270 -2 l 264 -1 q 260 2 262 0 q 260 8 259 5 l 260 8 q 271 43 263 18 q 288 104 278 69 q 310 178 299 140 q 331 252 321 216 q 349 313 342 287 q 360 350 357 339 l 360 350 q 370 388 363 361 q 386 451 377 415 q 405 524 395 486 q 424 598 415 563 q 440 659 433 633 q 450 697 447 686 l 450 697 q 458 702 452 704 l 458 702 q 462 699 461 701 q 462 693 463 697 l 462 693 q 450 654 458 681 q 433 591 443 627 q 413 518 424 556 q 393 445 403 480 q 377 384 384 410 q 367 347 370 358 l 367 347 q 357 312 364 338 q 340 251 350 287 q 320 178 330 216 q 300 104 309 140 q 283 42 290 69 q 272 5 275 16"},"$":{"ha":515,"x_min":28,"x_max":490,"o":"m 272 696 l 272 696 q 388 676 340 696 q 463 620 437 656 q 490 540 490 585 l 490 540 q 478 501 490 517 q 441 485 466 485 l 441 485 q 400 499 414 485 q 386 537 386 514 l 386 537 l 386 567 q 356 655 386 622 q 272 688 325 688 l 272 688 q 198 672 230 688 q 150 627 167 656 q 132 556 132 597 l 132 556 q 147 493 132 521 q 196 442 162 465 q 285 399 229 419 l 285 399 q 401 342 358 373 q 464 273 445 311 q 483 187 483 235 l 483 187 q 456 92 483 133 q 378 27 429 50 q 259 3 328 3 l 259 3 q 135 25 187 3 q 56 83 84 47 q 28 163 28 119 l 28 163 q 42 204 28 188 q 79 220 56 220 l 79 220 q 116 206 101 220 q 131 167 131 191 l 131 167 l 131 127 q 165 44 131 77 q 259 11 199 11 l 259 11 q 353 46 319 11 q 388 141 388 81 l 388 141 q 356 234 388 197 q 245 299 324 271 l 245 299 q 124 356 169 326 q 60 424 80 387 q 41 509 41 461 l 41 509 q 69 603 41 561 q 150 671 98 646 q 272 696 202 696 m 271 359 l 271 359 l 263 359 q 262 498 263 436 q 260 608 261 560 q 258 693 259 657 q 257 754 257 730 l 257 754 q 260 764 257 761 q 267 768 262 768 l 267 768 q 274 764 272 768 q 276 754 276 761 l 276 754 q 275 698 276 733 q 274 613 275 663 q 272 500 273 564 q 271 359 271 437 m 255 345 l 255 345 l 263 345 q 264 203 263 267 q 266 90 265 139 q 268 5 267 41 q 269 -51 269 -30 l 269 -51 q 266 -61 269 -57 q 259 -64 264 -64 l 259 -64 q 252 -61 255 -64 q 250 -51 250 -57 l 250 -51 q 250 10 250 -27 q 252 95 251 46 q 254 205 254 143 q 255 345 255 268"},"%":{"ha":591,"x_min":25,"x_max":566,"o":"m 174 711 l 174 711 q 279 664 239 711 q 320 536 320 617 l 320 536 q 300 438 320 478 q 248 377 281 398 q 174 356 215 356 l 174 356 q 64 402 103 356 q 25 536 25 449 l 25 536 q 64 663 25 615 q 174 711 104 711 m 244 533 l 244 533 q 225 664 244 626 q 174 703 206 703 l 174 703 q 121 662 140 703 q 101 540 101 622 l 101 540 q 121 403 101 443 q 174 364 140 364 l 174 364 q 208 379 193 364 q 234 431 224 395 q 244 533 244 468 m 309 365 l 309 365 q 307 364 308 364 q 305 364 306 363 l 305 364 q 304 366 304 365 q 305 368 304 367 l 305 368 q 324 398 308 373 q 364 461 341 424 q 414 539 388 498 q 464 616 441 580 q 502 675 487 652 q 518 700 517 699 l 518 700 q 523 705 520 704 q 529 703 526 706 l 529 703 q 532 698 532 702 q 529 692 532 695 l 529 692 q 513 668 528 691 q 473 609 497 645 q 422 534 450 574 q 370 457 395 494 q 329 395 346 420 q 309 365 312 370 m 284 336 l 284 336 q 286 338 284 338 q 288 338 288 339 l 288 338 q 289 336 290 338 q 287 333 289 335 l 287 333 q 268 303 284 329 q 227 240 251 278 q 177 161 204 202 q 128 83 151 120 q 89 23 105 47 q 73 -2 74 -1 l 73 -2 q 68 -6 72 -5 q 63 -5 65 -6 l 63 -5 q 60 0 60 -3 q 62 7 60 4 l 62 7 q 79 31 63 8 q 119 91 95 55 q 170 167 143 127 q 222 245 197 208 q 264 307 247 282 q 284 336 281 332 m 420 346 l 420 346 q 526 299 485 346 q 566 171 566 252 l 566 171 q 547 73 566 113 q 495 12 528 33 q 420 -9 462 -9 l 420 -9 q 310 37 350 -9 q 271 171 271 84 l 271 171 q 311 298 271 250 q 420 346 351 346 m 490 168 l 490 168 q 471 299 490 261 q 420 338 453 338 l 420 338 q 367 297 387 338 q 348 175 348 257 l 348 175 q 367 38 348 78 q 420 -1 387 -1 l 420 -1 q 455 14 439 -1 q 480 66 471 30 q 490 168 490 103"},"&":{"ha":877,"x_min":66,"x_max":833,"o":"m 618 -11 l 618 -11 q 734 16 686 -11 q 808 96 782 44 q 833 225 833 149 l 833 225 q 801 407 833 320 q 711 563 769 494 l 711 563 q 558 687 644 641 q 374 734 472 734 l 374 734 q 214 703 282 734 q 110 620 146 673 q 73 496 73 567 l 73 496 q 92 420 73 446 q 142 393 111 393 l 142 393 q 175 406 162 393 q 188 440 188 420 l 188 440 q 182 471 188 458 q 169 496 176 484 q 155 523 161 508 q 149 561 149 539 l 149 561 q 175 648 149 610 q 250 706 201 685 q 372 728 300 728 l 372 728 q 554 682 469 728 q 704 559 639 636 l 704 559 q 794 403 763 490 q 826 225 826 316 l 826 225 q 807 111 826 156 q 753 43 788 65 q 673 21 719 21 l 673 21 q 604 36 636 21 q 540 86 573 51 q 467 178 508 120 l 467 178 q 413 271 435 223 q 380 369 391 319 q 369 473 369 420 l 369 473 q 393 575 369 536 q 449 614 418 614 l 449 614 q 488 584 475 614 q 500 506 500 554 l 500 506 q 483 414 500 451 q 436 358 466 378 q 371 334 407 338 l 371 334 l 373 330 q 485 355 437 334 q 560 413 534 376 q 587 501 587 450 l 587 501 q 571 565 587 537 q 525 608 554 592 q 457 623 496 623 l 457 623 q 360 597 401 623 q 297 526 319 571 q 275 423 275 481 l 275 423 q 283 331 275 378 q 312 234 292 283 q 366 135 332 185 l 366 135 q 441 50 402 82 q 525 3 481 18 q 618 -11 569 -11 m 535 85 l 535 85 l 537 82 q 657 177 617 123 q 697 293 697 231 l 697 293 q 680 348 697 330 q 639 367 662 367 l 639 367 q 599 352 615 367 q 583 317 583 337 l 583 317 q 589 288 583 301 q 602 261 596 276 q 608 225 608 246 l 608 225 q 601 184 608 208 q 579 134 595 160 q 535 85 563 109 m 293 325 l 293 325 l 293 328 q 168 299 219 324 q 92 233 118 274 q 66 139 66 192 l 66 139 q 112 30 66 71 q 241 -11 158 -11 l 241 -11 q 329 -2 292 -11 q 394 23 366 7 q 444 59 422 40 l 444 59 l 441 67 q 390 37 420 50 q 315 25 360 25 l 315 25 q 212 65 248 25 q 175 175 175 104 l 175 175 q 189 242 175 210 q 229 297 203 275 q 293 325 256 320"},"'":{"ha":136,"x_min":16,"x_max":120,"o":"m 65 457 l 65 457 q 61 458 63 457 q 59 463 60 460 l 59 463 l 23 718 q 28 770 16 752 q 69 789 41 789 l 69 789 q 108 770 96 789 q 112 718 120 752 l 112 718 l 71 463 q 68 458 70 459 q 65 457 67 457"},"(":{"ha":306,"x_min":60,"x_max":302,"o":"m 60 306 l 60 306 q 89 481 60 401 q 168 623 118 562 q 281 716 218 683 l 281 716 q 301 723 299 725 l 301 723 q 300 719 302 722 q 289 707 298 717 l 289 707 q 213 602 244 663 q 164 465 181 540 q 148 306 148 391 l 148 306 q 164 147 148 222 q 213 11 181 72 q 289 -95 244 -50 l 289 -95 q 300 -107 298 -104 q 301 -110 302 -109 l 301 -110 q 281 -104 299 -113 l 281 -104 q 168 -10 218 -70 q 89 131 118 50 q 60 306 60 212"},")":{"ha":304,"x_min":2,"x_max":244,"o":"m 244 304 l 244 304 q 215 129 244 210 q 137 -12 187 48 q 23 -106 87 -73 l 23 -106 q 3 -112 5 -115 l 3 -112 q 4 -109 2 -112 q 15 -97 7 -106 l 15 -97 q 92 9 60 -53 q 140 145 123 70 q 157 304 157 220 l 157 304 q 140 463 157 389 q 92 599 123 538 q 15 705 60 661 l 15 705 q 4 717 7 714 q 3 721 2 720 l 3 721 q 23 714 5 723 l 23 714 q 137 620 87 681 q 215 479 187 560 q 244 304 244 399"},"*":{"ha":570,"x_min":29,"x_max":535,"o":"m 287 509 l 287 509 l 283 509 q 277 597 283 563 q 263 653 271 632 q 249 690 255 675 q 243 720 243 706 l 243 720 q 286 765 243 765 l 286 765 q 317 753 306 765 q 328 720 328 742 l 328 720 q 322 690 328 705 q 308 653 316 675 q 293 597 300 632 q 287 509 287 563 m 286 511 l 286 511 l 285 507 q 199 528 234 523 q 141 532 164 533 q 101 530 118 531 q 71 534 85 529 l 71 534 q 42 588 29 547 l 42 588 q 62 615 48 608 q 97 615 76 622 l 97 615 q 124 600 111 610 q 154 575 136 589 q 204 544 173 560 q 286 511 235 527 m 284 510 l 284 510 l 287 508 q 240 432 255 464 q 218 378 225 401 q 208 340 212 356 q 196 312 204 324 l 196 312 q 134 302 170 277 l 134 302 q 116 329 118 314 q 126 363 114 345 l 126 363 q 149 384 135 375 q 182 405 163 392 q 227 442 201 418 q 284 510 252 466 m 284 508 l 284 508 l 287 510 q 344 442 318 466 q 389 405 369 418 q 422 383 408 392 q 444 363 435 375 l 444 363 q 435 301 470 327 l 435 301 q 403 292 419 289 q 375 312 388 295 l 375 312 q 362 340 366 324 q 352 378 359 356 q 331 432 346 401 q 284 508 315 464 m 286 507 l 285 511 q 367 544 336 527 q 416 575 398 560 q 447 600 434 589 q 473 615 459 610 l 473 615 q 529 587 516 629 l 529 587 q 528 554 535 568 q 500 534 521 540 l 500 534 q 469 530 486 529 q 429 532 453 531 q 371 528 406 533 q 286 507 337 523 l 286 507"},"+":{"ha":455,"x_min":49,"x_max":407,"o":"m 49 341 l 49 341 q 50 344 49 343 q 54 345 52 345 l 54 345 l 402 345 q 405 344 404 345 q 407 341 407 343 l 407 341 q 405 338 407 339 q 402 337 404 337 l 402 337 l 54 337 q 50 338 52 337 q 49 341 49 339 m 228 157 l 228 157 q 225 159 226 157 q 224 162 224 160 l 224 162 l 224 511 q 225 514 224 513 q 228 515 226 515 l 228 515 q 231 514 230 515 q 232 511 232 513 l 232 511 l 232 162 q 231 159 232 160 q 228 157 230 157"},",":{"ha":184,"x_min":36,"x_max":159,"o":"m 124 0 l 103 0 q 53 16 70 0 q 36 60 36 33 l 36 60 q 53 104 36 87 q 97 122 71 122 l 97 122 q 141 100 123 122 q 159 36 159 78 l 159 36 q 152 -39 159 -6 q 130 -97 145 -72 q 95 -139 116 -122 q 48 -165 75 -155 l 48 -165 q 43 -166 45 -166 q 41 -163 42 -165 l 41 -163 q 42 -160 41 -161 q 46 -158 43 -159 l 46 -158 q 100 -122 80 -144 q 129 -71 120 -99 q 138 -16 138 -43 l 138 -16 q 135 -4 138 -9 q 124 0 133 0 l 124 0"},"-":{"ha":238,"x_min":18,"x_max":221,"o":"m 29 287 l 218 287 q 221 284 221 287 l 221 284 l 214 237 q 213 234 214 235 q 210 234 212 234 l 210 234 l 20 234 q 18 237 18 234 l 18 237 l 24 285 q 25 287 25 286 q 29 287 26 287 l 29 287"},".":{"ha":181,"x_min":31,"x_max":151,"o":"m 90 -8 l 90 -8 q 60 1 73 -8 q 38 24 46 10 q 31 56 31 39 l 31 56 q 39 88 31 74 q 60 112 47 103 q 90 120 74 120 l 90 120 q 121 111 108 120 q 143 88 135 103 q 151 56 151 74 l 151 56 q 143 24 151 39 q 121 0 135 9 q 90 -8 108 -8"},"/":{"ha":328,"x_min":34,"x_max":309,"o":"m 174 304 l 174 304 q 159 256 169 288 q 138 185 150 225 q 114 103 127 146 q 89 19 101 60 q 67 -56 77 -22 q 50 -109 57 -89 l 50 -109 q 46 -115 49 -113 q 39 -116 43 -117 l 39 -116 q 35 -112 36 -115 q 35 -104 34 -109 l 35 -104 q 50 -55 40 -87 q 74 17 61 -23 q 100 100 87 57 q 127 184 114 144 q 150 257 140 225 q 166 306 161 289 l 166 306 q 182 356 172 324 q 204 430 192 389 q 230 516 217 472 q 255 601 243 560 q 276 675 267 642 q 292 724 286 707 l 292 724 q 296 730 294 728 q 303 731 299 732 l 303 731 q 308 726 307 730 q 307 719 309 723 l 307 719 q 290 665 301 698 q 266 590 279 631 q 238 505 252 549 q 212 422 225 462 q 189 351 199 382 q 174 304 179 320"},":":{"ha":171,"x_min":25,"x_max":146,"o":"m 85 -8 l 85 -8 q 54 1 68 -8 q 33 24 41 10 q 25 56 25 39 l 25 56 q 33 88 25 74 q 55 112 41 103 q 85 120 68 120 l 85 120 q 116 111 102 120 q 138 88 130 103 q 146 56 146 74 l 146 56 q 138 24 146 39 q 116 0 130 9 q 85 -8 102 -8 m 85 276 l 85 276 q 54 285 68 276 q 33 309 41 294 q 25 341 25 323 l 25 341 q 33 373 25 358 q 55 396 41 388 q 85 405 68 405 l 85 405 q 116 396 102 405 q 138 373 130 387 q 146 341 146 358 l 146 341 q 138 308 146 323 q 116 285 130 294 q 85 276 102 276"},";":{"ha":180,"x_min":27,"x_max":151,"o":"m 90 273 l 90 273 q 59 282 73 273 q 38 306 46 291 q 30 338 30 320 l 30 338 q 38 370 30 355 q 60 393 46 385 q 90 402 73 402 l 90 402 q 121 393 107 402 q 143 370 135 384 q 151 338 151 355 l 151 338 q 143 305 151 320 q 121 282 135 291 q 90 273 107 273 m 115 1 l 94 1 q 44 17 61 1 q 27 61 27 34 l 27 61 q 44 105 27 88 q 88 123 62 123 l 88 123 q 132 101 114 123 q 150 37 150 79 l 150 37 q 143 -38 150 -5 q 121 -96 136 -71 q 86 -138 107 -121 q 39 -164 66 -154 l 39 -164 q 34 -165 36 -165 q 32 -162 33 -164 l 32 -162 q 33 -159 32 -160 q 37 -157 34 -158 l 37 -157 q 91 -121 71 -143 q 120 -70 111 -98 q 129 -15 129 -42 l 129 -15 q 126 -3 129 -8 q 115 1 124 1 l 115 1"},"<":{"ha":432,"x_min":25,"x_max":383,"o":"m 380 137 l 30 343 l 30 342 l 373 546 q 376 548 375 547 q 377 549 377 549 l 377 549 q 376 551 377 551 q 374 552 376 552 l 374 552 q 373 551 374 552 q 370 550 372 551 l 370 550 l 30 349 q 26 346 27 347 q 25 342 25 344 l 25 342 q 26 338 25 340 q 30 335 27 337 l 30 335 l 376 132 q 379 131 378 132 q 381 131 380 131 l 381 131 q 382 131 382 131 q 383 133 383 132 l 383 133 q 382 135 383 134 q 380 137 381 137 l 380 137"},"=":{"ha":455,"x_min":49,"x_max":407,"o":"m 49 419 l 49 419 q 50 421 49 420 q 54 422 52 422 l 54 422 l 402 422 q 405 421 404 422 q 407 419 407 420 l 407 419 q 405 416 407 417 q 402 415 404 415 l 402 415 l 54 415 q 50 416 52 415 q 49 419 49 417 m 49 269 l 49 269 q 50 271 49 270 q 54 272 52 272 l 54 272 l 402 272 q 405 271 404 272 q 407 269 407 270 l 407 269 q 405 266 407 267 q 402 265 404 265 l 402 265 l 54 265 q 50 266 52 265 q 49 269 49 267"},">":{"ha":432,"x_min":49,"x_max":407,"o":"m 52 547 l 402 342 l 402 342 l 59 139 q 56 136 57 137 q 55 135 55 136 l 55 135 q 55 133 55 134 q 58 133 56 133 l 58 133 q 59 133 58 133 q 62 134 60 133 l 62 134 l 402 336 q 406 339 405 337 q 407 342 407 340 l 407 342 q 406 346 407 345 q 402 349 405 347 l 402 349 l 56 552 q 53 553 54 553 q 51 554 52 554 l 51 554 q 50 553 50 554 q 49 552 49 553 l 49 552 q 50 549 49 550 q 52 547 51 548 l 52 547"},"?":{"ha":482,"x_min":38,"x_max":456,"o":"m 203 301 l 203 301 l 206 194 q 208 189 207 191 q 211 188 209 188 l 211 188 q 214 189 213 188 q 216 194 215 191 l 216 194 l 218 291 q 224 313 218 305 q 244 326 230 321 l 244 326 l 274 334 q 411 419 366 364 q 456 547 456 474 l 456 547 q 401 674 456 629 q 245 720 346 720 l 245 720 q 139 699 186 720 q 65 643 92 678 q 38 567 38 609 l 38 567 q 52 520 38 537 q 89 503 66 503 l 89 503 q 131 522 116 503 q 146 574 146 541 l 146 574 l 146 620 q 169 686 145 660 q 243 712 194 712 l 243 712 q 311 676 286 712 q 336 566 336 640 l 336 566 q 313 428 336 479 q 239 347 291 377 l 239 347 l 221 336 q 207 321 210 330 q 203 301 203 313 m 207 -8 l 207 -8 q 177 0 190 -8 q 155 24 163 9 q 148 56 148 39 l 148 56 q 156 88 148 74 q 177 112 164 103 q 207 120 191 120 l 207 120 q 238 111 225 120 q 260 88 252 103 q 268 56 268 74 l 268 56 q 260 24 268 39 q 238 0 252 9 q 207 -8 225 -8"},"@":{"ha":740,"x_min":18,"x_max":721,"o":"m 459 263 l 456 259 q 419 272 438 267 q 377 277 400 277 l 377 277 q 315 253 336 277 q 294 187 294 229 l 294 187 q 314 123 294 146 q 367 101 334 101 l 367 101 q 411 111 389 101 q 448 140 433 121 l 448 140 l 452 137 q 396 90 432 106 q 319 74 360 74 l 319 74 q 233 102 266 74 q 201 173 201 129 l 201 173 q 241 253 201 222 q 367 284 282 284 l 367 284 q 420 277 399 284 q 459 263 441 271 l 459 263 m 565 93 l 565 93 q 616 107 591 93 q 662 149 641 121 q 695 218 682 177 q 707 313 707 259 l 707 313 q 663 505 707 425 q 544 626 619 584 q 377 669 470 669 l 377 669 q 232 639 297 669 q 121 556 167 610 q 51 432 75 503 q 26 277 26 360 l 26 277 q 72 74 26 161 q 198 -60 118 -12 q 385 -108 279 -108 l 385 -108 q 570 -65 484 -108 q 713 60 657 -21 l 713 60 q 716 63 715 63 q 720 63 718 64 l 720 63 q 721 59 721 62 q 720 56 721 57 l 720 56 q 628 -39 681 0 q 514 -96 576 -77 q 385 -116 453 -116 l 385 -116 q 239 -89 306 -116 q 123 -11 172 -62 q 46 113 73 41 q 18 277 18 186 l 18 277 q 43 435 18 363 q 115 562 68 508 q 228 646 162 617 q 377 676 295 676 l 377 676 q 509 652 448 676 q 617 580 571 627 q 689 466 663 534 q 715 313 715 399 l 715 313 q 690 184 715 237 q 622 102 666 131 q 523 74 579 74 l 523 74 q 482 80 499 74 q 456 96 466 85 q 441 125 446 108 l 441 125 l 439 126 l 439 415 q 423 475 439 454 q 376 496 408 496 l 376 496 q 326 480 342 496 q 310 444 310 463 l 310 444 l 310 410 q 296 376 310 390 q 261 363 282 363 l 261 363 q 234 373 245 363 q 224 403 224 383 l 224 403 q 242 449 224 427 q 297 487 261 472 q 387 502 334 502 l 387 502 q 468 488 436 502 q 516 447 500 474 q 532 383 532 421 l 532 383 l 532 127 q 540 101 532 109 q 565 93 548 93"},"A":{"ha":608,"x_min":-3,"x_max":608,"o":"m 133 262 l 135 270 l 394 270 l 396 262 l 133 262 m 152 3 l 152 3 q 151 1 152 2 q 149 0 150 0 l 149 0 l 0 0 q -2 1 -1 0 q -3 3 -3 2 l -3 3 q -2 5 -3 5 q 1 7 0 6 l 1 7 l 23 13 q 51 33 37 18 q 75 81 65 48 l 75 81 l 244 650 q 243 676 249 666 q 222 691 238 686 l 222 691 q 215 695 217 694 q 213 697 213 696 l 213 697 q 214 700 213 699 q 217 700 215 700 l 217 700 l 386 700 q 389 700 388 700 q 390 697 390 699 l 390 697 q 387 695 390 696 q 381 692 385 693 l 381 692 q 364 686 367 690 q 365 669 361 682 l 365 669 l 570 32 q 582 14 574 20 q 603 7 590 8 l 603 7 q 606 6 605 7 q 608 3 608 5 l 608 3 q 607 1 608 2 q 604 0 606 0 l 604 0 l 406 0 q 404 1 405 0 q 403 3 403 2 l 403 3 q 404 5 403 5 q 408 7 406 6 l 408 7 l 434 10 q 449 19 446 13 q 448 37 452 26 l 448 37 l 251 658 l 261 678 l 83 80 q 82 47 78 61 q 99 25 87 34 q 129 11 112 16 l 129 11 l 148 7 q 151 5 150 6 q 152 3 152 5"},"B":{"ha":625,"x_min":36,"x_max":595,"o":"m 595 169 l 595 169 q 533 47 595 94 q 354 0 471 0 l 354 0 l 40 0 q 37 1 38 0 q 36 3 36 2 l 36 3 q 41 7 36 6 l 41 7 l 86 13 q 99 19 95 15 q 104 32 104 23 l 104 32 l 104 674 q 100 683 104 680 q 86 687 96 686 l 86 687 l 41 694 q 36 697 36 695 l 36 697 q 37 699 36 699 q 40 700 38 700 l 40 700 l 272 700 q 427 675 364 700 q 522 606 490 650 q 555 504 555 562 l 555 504 q 529 418 555 456 q 455 357 503 380 q 338 335 406 335 l 338 335 l 355 338 q 480 316 426 338 q 564 256 534 294 q 595 169 595 218 m 309 331 l 309 331 l 203 331 l 203 340 l 318 340 q 392 359 362 340 q 437 414 422 378 q 453 499 453 449 l 453 499 q 429 600 453 557 q 365 667 406 643 q 270 691 324 691 l 270 691 l 216 691 l 216 29 q 222 14 216 18 q 242 9 229 9 l 242 9 l 328 9 q 411 30 376 9 q 464 87 445 50 q 482 171 482 123 l 482 171 q 437 287 482 243 q 309 331 393 331"},"C":{"ha":633,"x_min":30,"x_max":613,"o":"m 610 197 l 610 197 q 584 113 605 152 q 529 46 563 74 q 449 1 495 17 q 350 -15 404 -15 l 350 -15 q 180 30 252 -15 q 69 155 108 75 q 30 341 30 235 l 30 341 q 54 491 30 423 q 121 609 78 560 q 225 686 165 659 q 357 713 285 713 l 357 713 q 439 702 406 713 q 489 679 472 691 q 510 668 507 668 l 510 668 q 525 679 515 668 q 544 702 535 691 q 555 713 553 713 l 555 713 q 558 712 557 713 q 561 707 560 710 l 561 707 l 612 517 q 612 511 613 514 q 609 508 612 509 l 609 508 q 604 509 606 508 q 600 515 602 511 l 600 515 q 540 623 574 582 q 466 683 507 664 q 380 702 426 702 l 380 702 q 289 681 331 702 q 217 619 248 660 q 170 519 187 578 q 153 384 153 460 l 153 384 q 185 190 153 269 q 275 72 218 112 q 408 32 332 32 l 408 32 q 537 76 486 32 q 605 198 588 121 l 605 198 q 606 201 606 200 q 608 201 607 202 l 608 201 q 610 200 610 201 q 610 197 610 199"},"D":{"ha":703,"x_min":36,"x_max":672,"o":"m 36 3 l 36 3 q 40 7 36 6 l 40 7 l 88 13 q 100 18 96 15 q 104 27 104 21 l 104 27 l 104 672 q 100 682 104 679 q 88 687 96 686 l 88 687 l 40 694 q 36 698 36 695 l 36 698 q 37 700 36 699 q 40 700 38 700 l 40 700 l 266 700 q 432 674 357 700 q 560 597 506 647 q 643 476 614 547 q 672 316 672 405 l 672 316 q 628 146 672 217 q 505 38 584 75 q 324 0 427 0 l 324 0 l 40 0 q 37 1 38 0 q 36 3 36 2 m 236 8 l 324 8 q 441 42 389 8 q 522 148 492 77 q 552 330 552 219 l 552 330 q 533 483 552 416 q 477 597 514 551 q 387 668 440 644 q 267 692 334 692 l 267 692 l 218 692 l 218 26 q 222 13 218 18 q 236 8 227 8 l 236 8"},"E":{"ha":580,"x_min":36,"x_max":557,"o":"m 195 355 l 195 364 l 344 364 q 401 382 383 364 q 422 447 419 400 l 422 447 q 423 450 423 450 q 425 451 424 451 l 425 451 q 430 446 429 452 l 430 446 l 480 282 q 480 278 481 279 q 478 276 480 276 l 478 276 q 476 276 478 276 q 473 278 475 276 l 473 278 q 436 325 453 309 q 401 349 419 342 q 356 355 382 355 l 356 355 l 195 355 m 36 697 l 36 697 q 37 699 36 699 q 40 700 38 700 l 40 700 l 454 700 q 473 704 465 700 q 488 711 482 707 q 496 714 494 714 l 496 714 q 498 713 497 714 q 500 705 499 712 l 500 705 l 543 537 q 543 533 544 534 q 541 531 543 532 l 541 531 q 539 532 540 531 q 537 534 538 532 l 537 534 q 485 613 508 582 q 442 661 462 644 q 403 685 423 678 q 362 691 384 691 l 362 691 l 218 691 l 218 30 q 224 14 218 20 q 242 9 230 9 l 242 9 l 367 9 q 423 24 397 9 q 478 81 448 38 q 550 207 508 123 l 550 207 q 552 210 551 209 q 555 211 553 211 l 555 211 q 557 209 556 211 q 556 204 557 207 l 556 204 l 506 -4 q 504 -12 505 -10 q 502 -14 503 -14 l 502 -14 q 492 -10 498 -14 q 475 -3 486 -7 q 449 0 465 0 l 449 0 l 40 0 q 37 1 38 0 q 36 3 36 2 l 36 3 q 41 7 36 6 l 41 7 l 86 13 q 99 18 95 15 q 104 27 104 21 l 104 27 l 104 674 q 99 683 104 680 q 86 687 95 686 l 86 687 l 41 694 q 36 697 36 695"},"F":{"ha":527,"x_min":36,"x_max":517,"o":"m 40 700 l 427 700 q 447 704 438 700 q 461 711 456 707 q 469 714 467 714 l 469 714 q 471 713 470 714 q 474 705 472 712 l 474 705 l 516 537 q 516 533 517 534 q 515 531 516 532 l 515 531 q 513 532 514 531 q 510 534 512 532 l 510 534 q 450 629 478 595 q 396 677 423 663 q 340 691 370 691 l 340 691 l 218 691 l 218 27 q 224 17 218 21 q 241 13 230 14 l 241 13 l 303 7 q 307 5 306 6 q 308 3 308 5 l 308 3 q 307 1 308 2 q 304 0 306 0 l 304 0 l 40 0 q 37 1 38 0 q 36 3 36 2 l 36 3 q 41 7 36 6 l 41 7 l 86 13 q 99 18 95 15 q 104 27 104 21 l 104 27 l 104 674 q 99 683 104 680 q 86 687 95 686 l 86 687 l 41 694 q 36 697 36 695 l 36 697 q 37 699 36 699 q 40 700 38 700 l 40 700 m 187 344 l 187 352 l 328 352 q 389 370 369 352 q 411 435 409 388 l 411 435 q 412 438 412 438 q 414 439 413 439 l 414 439 q 419 434 417 440 l 419 434 l 459 270 q 460 266 460 268 q 458 264 459 265 l 458 264 q 456 264 457 264 q 453 266 455 265 l 453 266 q 416 313 432 296 q 383 337 400 330 q 340 344 365 344 l 340 344 l 187 344"},"G":{"ha":686,"x_min":31,"x_max":667,"o":"m 614 271 l 614 1 q 613 -9 614 -6 q 610 -11 612 -11 l 610 -11 q 593 -3 605 -11 q 565 14 580 4 q 536 32 550 25 q 513 40 521 40 l 513 40 q 496 32 508 40 q 466 15 485 25 q 421 -2 448 5 q 358 -10 394 -10 l 358 -10 q 225 16 285 -10 q 122 88 165 42 q 54 199 78 135 q 31 338 31 262 l 31 338 q 56 490 31 422 q 127 608 81 559 q 236 684 173 657 q 375 710 299 710 l 375 710 q 450 698 420 710 q 496 675 480 687 q 518 664 513 664 l 518 664 q 538 675 525 664 q 564 698 551 687 q 581 710 576 710 l 581 710 q 583 708 582 710 q 585 703 584 707 l 585 703 l 622 498 q 622 494 622 496 q 621 492 622 493 l 621 492 q 618 492 620 492 q 616 495 617 493 l 616 495 q 551 614 588 568 q 469 681 514 660 q 376 702 425 702 l 376 702 q 259 664 310 702 q 178 550 208 626 q 149 362 149 474 l 149 362 q 181 171 149 250 q 266 49 212 92 q 386 7 320 7 l 386 7 q 425 11 404 7 q 465 26 446 16 q 496 49 484 35 q 509 81 509 63 l 509 81 l 509 271 q 504 280 509 277 q 491 284 500 283 l 491 284 l 425 291 q 421 292 422 291 q 420 294 420 293 l 420 294 q 421 296 420 296 q 424 297 422 297 l 424 297 l 663 297 q 666 296 665 297 q 667 294 667 296 l 667 294 q 666 292 667 293 q 662 291 665 292 l 662 291 l 627 284 q 617 280 620 283 q 614 271 614 277 l 614 271"},"H":{"ha":737,"x_min":38,"x_max":699,"o":"m 167 326 l 167 335 l 564 335 l 564 326 l 167 326 m 220 674 l 220 27 q 225 18 220 21 q 238 13 229 15 l 238 13 l 283 7 q 288 3 288 6 l 288 3 q 287 1 288 2 q 284 0 286 0 l 284 0 l 42 0 q 39 1 40 0 q 38 3 38 2 l 38 3 q 43 7 38 6 l 43 7 l 88 13 q 102 18 97 15 q 106 27 106 21 l 106 27 l 106 674 q 102 683 106 680 q 88 687 97 686 l 88 687 l 43 694 q 38 697 38 694 l 38 697 q 39 699 38 699 q 42 700 40 700 l 42 700 l 284 700 q 287 699 286 700 q 288 697 288 699 l 288 697 q 283 694 288 694 l 283 694 l 238 687 q 225 683 229 686 q 220 674 220 680 l 220 674 m 631 674 l 631 27 q 636 18 631 21 q 649 13 640 15 l 649 13 l 694 7 q 699 3 699 6 l 699 3 q 698 1 699 2 q 695 0 697 0 l 695 0 l 453 0 q 450 1 451 0 q 449 3 449 2 l 449 3 q 454 7 449 6 l 454 7 l 499 13 q 512 18 508 15 q 517 27 517 21 l 517 27 l 517 674 q 512 683 517 680 q 499 687 508 686 l 499 687 l 454 694 q 449 697 449 694 l 449 697 q 450 699 449 699 q 453 700 451 700 l 453 700 l 695 700 q 698 699 697 700 q 699 697 699 699 l 699 697 q 694 694 699 694 l 694 694 l 649 687 q 636 683 640 686 q 631 674 631 680 l 631 674"},"I":{"ha":321,"x_min":36,"x_max":286,"o":"m 218 674 l 218 27 q 222 18 218 21 q 236 13 227 15 l 236 13 l 281 7 q 286 3 286 6 l 286 3 q 285 1 286 2 q 282 0 284 0 l 282 0 l 40 0 q 37 1 38 0 q 36 3 36 2 l 36 3 q 41 7 36 6 l 41 7 l 86 13 q 99 18 95 15 q 104 27 104 21 l 104 27 l 104 674 q 99 683 104 680 q 86 687 95 686 l 86 687 l 41 694 q 36 697 36 694 l 36 697 q 37 699 36 699 q 40 700 38 700 l 40 700 l 282 700 q 285 699 284 700 q 286 697 286 699 l 286 697 q 281 694 286 694 l 281 694 l 236 687 q 222 683 227 686 q 218 674 218 680 l 218 674"},"J":{"ha":368,"x_min":21,"x_max":331,"o":"m 307 111 l 307 111 q 265 22 307 56 q 154 -11 224 -11 l 154 -11 q 55 16 90 -11 q 21 85 21 43 l 21 85 q 34 125 21 110 q 72 140 47 140 l 72 140 q 103 125 91 140 q 115 85 115 110 l 115 85 l 115 50 q 126 10 115 25 q 162 -5 136 -5 l 162 -5 q 206 15 190 -5 q 223 71 223 35 l 223 71 q 212 119 223 96 q 186 168 201 143 q 161 226 172 194 q 150 299 150 258 l 150 299 l 150 669 q 147 681 150 677 q 136 687 144 686 l 136 687 l 88 693 q 83 695 84 694 q 81 697 81 696 l 81 697 q 83 699 81 699 q 86 700 85 700 l 86 700 l 325 700 q 329 699 328 700 q 331 697 331 699 l 331 697 q 321 693 331 696 l 321 693 l 279 687 q 267 682 271 685 q 263 673 263 679 l 263 673 l 263 300 q 270 246 263 270 q 285 201 277 222 q 300 158 294 179 q 307 111 307 136"},"K":{"ha":677,"x_min":36,"x_max":681,"o":"m 196 228 l 193 235 l 488 589 q 514 631 509 611 q 511 668 519 652 q 482 689 503 683 l 482 689 l 450 694 q 447 695 448 695 q 446 698 446 696 l 446 698 q 447 699 446 699 q 450 700 448 700 l 450 700 l 645 700 q 647 699 646 700 q 648 698 648 699 l 648 698 q 647 695 648 696 q 644 694 646 694 l 644 694 q 615 684 629 690 q 583 665 600 677 q 545 635 566 654 q 497 587 524 616 l 497 587 l 196 228 m 497 42 l 313 377 l 394 459 l 619 48 q 642 18 631 27 q 677 7 654 9 l 677 7 q 680 6 679 7 q 681 4 681 5 l 681 4 q 680 1 681 2 q 677 0 679 0 l 677 0 l 446 0 q 444 1 445 0 q 443 4 443 2 l 443 4 q 444 6 443 5 q 447 7 445 7 l 447 7 l 492 13 q 502 20 500 14 q 497 42 505 27 l 497 42 m 218 674 l 218 27 q 222 18 218 21 q 236 13 227 15 l 236 13 l 281 7 q 285 5 284 6 q 286 3 286 5 l 286 3 q 285 1 286 2 q 282 0 284 0 l 282 0 l 40 0 q 37 1 38 0 q 36 3 36 2 l 36 3 q 41 7 36 6 l 41 7 l 86 13 q 99 18 95 15 q 104 27 104 21 l 104 27 l 104 674 q 99 683 104 680 q 86 687 95 686 l 86 687 l 41 694 q 36 697 36 695 l 36 697 q 37 699 36 699 q 40 700 38 700 l 40 700 l 282 700 q 285 699 284 700 q 286 697 286 699 l 286 697 q 281 694 286 695 l 281 694 l 236 687 q 222 683 227 686 q 218 674 218 680 l 218 674"},"L":{"ha":543,"x_min":36,"x_max":536,"o":"m 281 694 l 281 694 l 236 687 q 222 683 227 686 q 218 674 218 680 l 218 674 l 218 29 q 224 14 218 18 q 242 9 230 9 l 242 9 l 358 9 q 403 18 382 9 q 443 50 424 27 q 484 116 463 73 l 484 116 l 528 207 q 530 210 529 209 q 533 211 531 211 l 533 211 q 535 209 535 211 q 535 204 536 207 l 535 204 l 489 -4 q 486 -12 487 -11 q 484 -14 486 -14 l 484 -14 q 474 -10 481 -14 q 458 -3 468 -7 q 432 0 448 0 l 432 0 l 40 0 q 37 1 38 0 q 36 3 36 2 l 36 3 q 41 7 36 6 l 41 7 l 86 13 q 99 18 95 15 q 104 27 104 21 l 104 27 l 104 674 q 99 683 104 680 q 86 687 95 686 l 86 687 l 41 694 q 36 697 36 695 l 36 697 q 37 699 36 699 q 40 700 38 700 l 40 700 l 282 700 q 285 699 284 700 q 286 697 286 699 l 286 697 q 281 694 286 695"},"M":{"ha":796,"x_min":-2,"x_max":787,"o":"m 228 688 l 413 234 l 403 218 l 578 686 q 584 698 582 695 q 592 700 587 700 l 592 700 l 739 700 q 742 699 741 700 q 744 697 744 699 l 744 697 q 742 695 744 696 q 739 694 741 694 l 739 694 l 691 687 q 679 680 683 686 q 676 664 676 674 l 676 664 l 721 34 q 725 19 722 23 q 737 13 728 15 l 737 13 l 782 7 q 785 5 784 6 q 787 3 787 5 l 787 3 q 786 1 787 2 q 783 0 785 0 l 783 0 l 544 0 q 541 1 542 0 q 540 3 540 2 l 540 3 q 541 5 540 5 q 545 7 542 6 l 545 7 l 589 13 q 603 19 599 15 q 607 33 607 24 l 607 33 l 564 637 l 571 642 l 367 81 q 363 71 365 74 q 359 69 361 69 l 359 69 q 356 70 358 69 q 353 74 355 72 q 351 81 352 76 l 351 81 l 128 634 l 135 646 l 95 66 q 106 34 94 47 q 139 16 118 22 l 139 16 l 191 7 q 194 5 193 6 q 195 3 195 5 l 195 3 q 194 1 195 2 q 192 0 194 0 l 192 0 l 2 0 q -1 1 0 0 q -2 3 -2 2 l -2 3 q -1 5 -2 5 q 3 7 1 6 l 3 7 l 40 15 q 72 34 60 21 q 86 67 85 47 l 86 67 l 125 632 q 123 671 127 657 q 108 686 120 685 l 108 686 l 68 692 q 59 693 62 693 q 57 696 57 694 l 57 696 q 65 700 57 700 l 65 700 l 214 700 q 222 698 219 700 q 228 688 225 695 l 228 688"},"N":{"ha":670,"x_min":21,"x_max":651,"o":"m 221 3 l 221 3 q 220 1 221 2 q 217 0 219 0 l 217 0 l 25 0 q 22 1 23 0 q 21 3 21 2 l 21 3 q 26 7 21 5 l 26 7 l 63 17 q 94 35 82 23 q 106 71 106 48 l 106 71 l 106 594 q 105 605 106 601 q 98 616 104 608 l 98 616 l 53 689 q 49 695 51 693 q 47 699 47 698 l 47 699 q 48 700 47 700 q 51 700 49 700 l 51 700 l 175 700 q 181 697 179 700 q 187 688 183 695 l 187 688 l 564 87 l 558 76 l 558 630 q 545 666 558 653 q 514 683 533 678 l 514 683 l 457 694 q 452 697 452 696 l 452 697 q 453 699 452 699 q 456 700 454 700 l 456 700 l 648 700 q 650 699 650 700 q 651 697 651 699 l 651 697 q 647 694 651 696 l 647 694 l 610 683 q 579 666 591 678 q 567 630 567 653 l 567 630 l 567 92 q 568 82 567 86 q 573 73 570 77 l 573 73 l 607 19 q 614 8 612 12 q 616 3 616 4 l 616 3 q 615 1 616 2 q 610 0 614 0 l 610 0 l 493 0 q 486 7 486 0 l 486 7 q 485 13 486 10 q 481 20 484 17 l 481 20 l 97 624 l 114 624 l 114 71 q 127 35 114 48 q 157 17 139 23 l 157 17 l 216 7 q 221 3 221 5"},"O":{"ha":730,"x_min":31,"x_max":699,"o":"m 365 710 l 365 710 q 500 684 439 710 q 606 609 562 657 q 675 495 651 561 q 699 352 699 430 l 699 352 q 675 204 699 271 q 606 89 651 137 q 500 16 561 42 q 365 -10 439 -10 l 365 -10 q 229 17 291 -10 q 124 92 168 43 q 55 206 79 140 q 31 353 31 273 l 31 353 q 56 498 31 433 q 125 611 80 564 q 231 684 170 659 q 365 710 292 710 m 583 266 l 583 266 q 570 402 583 337 q 535 520 558 466 q 481 614 512 575 q 413 676 450 654 q 334 698 376 698 l 334 698 q 237 668 279 698 q 171 580 195 638 q 147 439 147 523 l 147 439 q 160 301 147 367 q 195 181 172 236 q 249 87 218 127 q 317 24 280 47 q 396 2 355 2 l 396 2 q 494 32 452 2 q 559 120 536 61 q 583 266 583 179"},"P":{"ha":605,"x_min":36,"x_max":589,"o":"m 589 440 l 589 440 q 558 322 589 373 q 473 245 527 272 q 348 217 419 217 l 348 217 q 256 229 297 217 q 181 266 215 241 l 181 266 l 183 272 q 228 246 206 256 q 272 233 251 237 q 315 230 294 230 l 315 230 q 398 255 362 230 q 456 329 435 281 q 477 443 477 377 l 477 443 q 450 578 477 522 q 376 663 423 633 q 269 692 329 692 l 269 692 l 218 692 l 218 27 q 222 18 218 21 q 234 13 226 15 l 234 13 l 282 6 q 285 5 284 6 q 286 3 286 5 l 286 3 q 285 1 286 2 q 282 0 284 0 l 282 0 l 40 0 q 37 1 38 0 q 36 3 36 2 l 36 3 q 40 7 36 6 l 40 7 l 88 14 q 100 18 96 15 q 104 26 104 22 l 104 26 l 104 673 q 100 682 104 678 q 89 687 96 686 l 89 687 l 39 694 q 36 697 36 695 l 36 697 q 37 699 36 699 q 40 700 38 700 l 40 700 l 269 700 q 436 668 364 700 q 548 577 508 636 q 589 440 589 519"},"Q":{"ha":739,"x_min":29,"x_max":734,"o":"m 367 710 l 367 710 q 502 684 441 710 q 609 609 564 657 q 679 495 655 561 q 704 352 704 430 l 704 352 q 680 204 704 271 q 610 89 655 137 q 503 16 565 42 q 367 -10 441 -10 l 367 -10 q 228 16 291 -10 q 121 91 166 43 q 53 205 77 139 q 29 353 29 272 l 29 353 q 54 498 29 433 q 124 611 79 564 q 231 684 169 659 q 367 710 293 710 m 585 266 l 585 266 q 573 402 585 337 q 537 522 560 467 q 483 616 514 576 q 414 678 452 656 q 335 700 377 700 l 335 700 q 237 670 280 700 q 171 582 195 640 q 147 439 147 524 l 147 439 q 160 301 147 367 q 195 180 172 235 q 249 85 218 126 q 318 22 281 45 q 398 0 356 0 l 398 0 q 497 30 455 0 q 562 119 539 60 q 585 266 585 178 m 404 187 l 404 187 q 404 190 403 189 q 405 192 404 192 l 405 192 q 408 191 407 193 q 410 188 409 190 l 410 188 q 457 57 432 108 q 511 -22 483 6 q 572 -61 540 -50 q 642 -72 604 -72 l 642 -72 q 682 -69 667 -72 q 708 -60 698 -66 q 725 -44 718 -54 l 725 -44 q 729 -41 727 -41 q 733 -41 731 -40 l 733 -41 q 734 -44 734 -42 q 732 -50 734 -47 l 732 -50 l 685 -122 q 670 -136 679 -131 q 646 -140 661 -140 l 646 -140 q 575 -124 608 -140 q 512 -70 542 -107 q 456 31 483 -32 q 404 187 429 94"},"R":{"ha":643,"x_min":36,"x_max":650,"o":"m 593 458 l 593 458 q 571 367 593 407 q 509 300 549 326 q 414 265 469 274 l 414 265 q 395 262 405 263 q 375 260 385 261 q 354 260 365 260 l 354 260 q 288 264 317 260 q 235 279 258 269 q 193 303 211 288 l 193 303 l 198 310 q 236 287 215 296 q 279 276 257 279 q 325 272 302 272 l 325 272 q 436 318 395 272 q 478 455 478 364 l 478 455 q 451 577 478 523 q 377 661 424 630 q 270 691 330 691 l 270 691 l 218 691 l 218 32 q 222 19 218 23 q 236 13 226 15 l 236 13 l 281 7 q 285 5 284 6 q 286 3 286 5 l 286 3 q 282 0 286 0 l 282 0 l 40 0 q 37 1 38 0 q 36 3 36 2 l 36 3 q 41 7 36 6 l 41 7 l 86 13 q 99 19 95 15 q 104 32 104 23 l 104 32 l 104 674 q 99 683 104 680 q 86 687 95 686 l 86 687 l 41 694 q 36 697 36 695 l 36 697 q 37 699 36 699 q 40 700 38 700 l 40 700 l 269 700 q 444 670 372 700 q 554 586 516 640 q 593 458 593 531 m 469 44 l 337 267 l 443 280 l 589 41 q 615 16 601 22 q 644 7 628 10 l 644 7 q 648 5 647 6 q 650 3 650 5 l 650 3 q 648 1 650 2 q 645 0 647 0 l 645 0 l 436 0 q 432 3 432 0 l 432 3 q 433 5 432 5 q 437 7 435 6 l 437 7 l 462 10 q 476 21 474 14 q 469 44 478 29 l 469 44"},"S":{"ha":557,"x_min":44,"x_max":518,"o":"m 304 -10 l 304 -10 q 225 3 256 -10 q 177 30 194 17 q 154 44 161 44 l 154 44 q 145 35 151 44 q 131 16 138 27 q 117 -3 124 5 q 107 -12 110 -12 l 107 -12 q 101 -10 104 -12 q 98 -4 99 -8 l 98 -4 l 58 200 q 58 204 58 202 q 59 206 58 206 l 59 206 q 62 206 61 207 q 65 203 64 205 l 65 203 q 140 79 102 124 q 217 16 178 35 q 295 -2 256 -2 l 295 -2 q 385 30 352 -2 q 419 121 419 62 l 419 121 q 404 186 419 156 q 353 243 389 217 q 254 293 317 270 l 254 293 q 131 354 177 321 q 64 426 85 387 q 44 515 44 466 l 44 515 q 73 617 44 573 q 152 686 102 661 q 265 710 202 710 l 265 710 q 338 699 310 710 q 383 677 367 688 q 407 666 400 666 l 407 666 q 423 677 413 666 q 445 700 434 689 q 459 712 455 712 l 459 712 q 463 710 461 712 q 465 706 465 709 l 465 706 l 518 499 q 518 495 518 497 q 517 493 518 494 l 517 493 q 514 493 516 492 q 511 496 513 494 l 511 496 q 433 620 472 575 q 354 683 394 665 q 272 701 315 701 l 272 701 q 179 666 216 701 q 143 568 143 631 l 143 568 q 157 500 143 531 q 206 442 172 469 q 302 392 241 415 l 302 392 q 429 330 383 363 q 494 259 475 297 q 514 176 514 221 l 514 176 q 489 81 514 124 q 417 14 464 39 q 304 -10 370 -10"},"T":{"ha":604,"x_min":16,"x_max":589,"o":"m 89 700 l 89 700 l 510 700 q 528 704 519 700 q 543 711 537 707 q 552 714 549 714 l 552 714 q 554 713 553 714 q 556 705 555 712 l 556 705 l 588 524 q 588 519 589 521 q 586 516 588 517 l 586 516 q 583 517 585 516 q 581 520 582 518 l 581 520 q 528 631 552 594 q 481 680 504 668 q 434 692 458 692 l 434 692 l 359 692 l 359 27 q 364 18 359 21 q 377 13 368 15 l 377 13 l 422 7 q 427 3 427 6 l 427 3 q 423 0 427 0 l 423 0 l 181 0 q 178 1 179 0 q 177 3 177 2 l 177 3 q 182 7 177 6 l 182 7 l 227 13 q 241 18 236 15 q 245 27 245 21 l 245 27 l 245 692 l 170 692 q 123 678 146 692 q 76 628 101 665 q 23 520 52 591 l 23 520 q 21 517 22 518 q 18 516 19 516 l 18 516 q 16 519 16 517 q 17 524 16 521 l 17 524 l 48 705 q 50 713 49 712 q 53 714 52 714 l 53 714 q 60 711 55 714 q 72 704 65 707 q 89 700 80 700"},"U":{"ha":657,"x_min":43,"x_max":636,"o":"m 559 299 l 559 299 l 541 629 q 529 663 540 650 q 495 683 519 676 l 495 683 l 449 694 q 446 695 447 695 q 445 697 445 696 l 445 697 q 446 699 445 699 q 449 700 447 700 l 449 700 l 632 700 q 635 699 634 700 q 636 697 636 699 l 636 697 q 634 695 636 696 q 630 693 633 694 l 630 693 l 592 682 q 561 662 572 677 q 551 629 550 648 l 551 629 l 569 304 q 573 251 571 277 q 574 197 574 224 l 574 197 q 551 91 574 139 q 479 16 529 44 q 348 -12 429 -12 l 348 -12 q 200 14 259 -12 q 113 85 142 40 q 85 187 85 130 l 85 187 q 86 224 85 201 q 88 271 87 248 q 90 311 89 295 l 90 311 l 112 674 q 107 683 112 680 q 93 687 103 686 l 93 687 l 49 694 q 43 697 43 695 l 43 697 q 44 699 43 699 q 48 700 46 700 l 48 700 l 289 700 q 293 699 292 700 q 294 697 294 699 l 294 697 q 292 695 294 696 q 289 694 291 695 l 289 694 l 242 687 q 229 683 233 686 q 224 672 225 680 l 224 672 l 204 315 q 201 245 202 277 q 201 191 201 213 l 201 191 q 245 47 201 94 q 371 0 290 0 l 371 0 q 472 24 429 0 q 540 91 516 47 q 564 193 564 134 l 564 193 q 562 251 564 225 q 559 299 561 278"},"V":{"ha":594,"x_min":-4,"x_max":604,"o":"m 438 697 l 438 697 q 439 699 438 699 q 441 700 440 700 l 441 700 l 601 700 q 603 699 603 700 q 604 697 604 699 l 604 697 q 603 695 604 696 q 601 694 603 695 l 601 694 l 579 687 q 549 665 562 681 q 527 619 535 649 l 527 619 l 356 62 q 353 47 354 55 q 352 31 352 40 l 352 31 l 352 6 q 351 2 352 3 q 348 0 350 0 l 348 0 l 248 0 q 244 2 246 0 q 243 6 243 3 l 243 6 l 243 31 q 241 44 243 37 q 237 60 240 51 l 237 60 l 42 668 q 36 681 39 677 q 28 687 34 685 l 28 687 l 2 693 q -4 697 -4 696 l -4 697 q -3 699 -4 699 q 0 700 -1 700 l 0 700 l 228 700 q 230 699 230 700 q 231 697 231 699 l 231 697 q 230 695 231 696 q 226 694 229 695 l 226 694 l 177 688 q 164 680 166 686 q 164 664 161 674 l 164 664 l 352 68 l 339 36 l 518 618 q 517 662 525 644 q 474 689 508 681 l 474 689 l 442 694 q 439 695 440 695 q 438 697 438 696"},"W":{"ha":897,"x_min":5,"x_max":908,"o":"m 318 25 l 466 558 l 473 551 l 333 47 q 332 41 333 45 q 331 32 331 38 l 331 32 l 331 5 q 330 2 331 3 q 327 0 330 0 l 327 0 l 222 0 q 219 2 220 0 q 218 5 218 3 l 218 5 l 218 32 q 217 41 218 38 q 215 49 216 44 l 215 49 l 53 673 q 48 684 51 681 q 41 688 46 687 l 41 688 l 8 695 q 6 696 7 696 q 5 698 5 697 l 5 698 q 6 699 5 699 q 8 700 7 700 l 8 700 l 228 700 q 230 699 229 700 q 231 698 231 699 l 231 698 q 228 695 231 695 l 228 695 l 180 688 q 170 683 173 687 q 170 671 168 678 l 170 671 l 329 46 l 318 25 m 752 697 l 752 697 q 753 699 752 699 q 755 700 754 700 l 755 700 l 904 700 q 907 699 906 700 q 908 697 908 699 l 908 697 q 907 695 908 696 q 904 694 906 695 l 904 694 l 885 687 q 854 665 868 681 q 834 623 840 649 l 834 623 l 691 47 q 690 41 691 45 q 689 32 689 38 l 689 32 l 689 5 q 688 2 689 3 q 685 0 688 0 l 685 0 l 580 0 q 577 2 578 0 q 576 5 576 3 l 576 5 l 576 32 q 575 41 576 38 q 573 50 574 45 l 573 50 l 414 673 q 410 683 412 680 q 402 688 408 687 l 402 688 l 371 695 q 368 696 369 696 q 367 698 367 697 l 367 698 q 368 699 367 699 q 370 700 369 700 l 370 700 l 589 700 q 591 699 590 700 q 592 698 592 699 l 592 698 q 591 696 592 697 q 588 695 590 695 l 588 695 l 543 688 q 534 682 536 687 q 533 671 532 678 l 533 671 l 688 44 l 677 25 l 825 624 q 821 665 831 649 q 780 689 811 681 l 780 689 l 756 694 q 753 695 754 695 q 752 697 752 696"},"X":{"ha":630,"x_min":12,"x_max":627,"o":"m 207 664 l 562 43 q 580 22 571 29 q 599 12 589 15 q 621 7 610 9 l 621 7 q 626 5 625 6 q 627 3 627 5 l 627 3 q 626 1 627 2 q 623 0 625 0 l 623 0 l 374 0 q 371 1 372 0 q 370 3 370 2 l 370 3 q 371 6 370 5 q 377 7 373 7 l 377 7 q 420 15 406 11 q 435 27 433 20 q 431 46 438 35 l 431 46 l 80 661 q 64 680 73 674 q 45 689 55 687 q 22 694 35 692 l 22 694 q 18 695 19 695 q 17 697 17 696 l 17 697 q 18 699 17 699 q 21 700 20 700 l 21 700 l 272 700 q 275 700 274 700 q 276 698 276 699 l 276 698 q 275 695 276 696 q 270 694 274 695 l 270 694 l 219 689 q 203 681 205 688 q 207 664 201 675 l 207 664 m 497 612 l 345 367 l 339 369 l 489 614 q 498 664 508 646 q 460 689 489 683 l 460 689 l 427 693 q 424 694 425 694 q 423 697 423 695 l 423 697 q 424 699 423 698 q 427 700 425 700 l 427 700 l 601 700 q 604 697 604 700 l 604 697 q 603 695 604 696 q 599 693 602 694 l 599 693 q 535 660 556 681 q 497 612 515 640 l 497 612 m 121 89 l 291 361 l 298 358 l 127 84 q 118 37 110 55 q 157 12 126 19 l 157 12 l 192 7 q 195 5 194 6 q 196 3 196 5 l 196 3 q 195 1 196 2 q 192 0 194 0 l 192 0 l 16 0 q 13 1 15 0 q 12 3 12 2 l 12 3 q 13 5 12 5 q 16 7 14 6 l 16 7 q 62 23 45 13 q 92 48 79 32 q 121 89 106 63 l 121 89"},"Y":{"ha":598,"x_min":7,"x_max":598,"o":"m 511 615 l 360 258 l 251 242 l 61 671 q 51 684 57 680 q 36 690 45 689 l 36 690 l 13 694 q 8 695 10 694 q 7 697 7 696 l 7 697 q 8 699 7 699 q 12 700 10 700 l 12 700 l 237 700 q 241 700 240 700 q 242 698 242 699 l 242 698 q 236 693 242 694 l 236 693 l 194 688 q 179 683 182 686 q 180 674 177 681 l 180 674 l 358 268 l 353 263 l 502 615 q 502 661 512 641 q 458 689 491 681 l 458 689 l 438 693 q 434 695 435 694 q 433 697 433 696 l 433 697 q 434 699 433 699 q 437 700 435 700 l 437 700 l 593 700 q 597 699 596 700 q 598 697 598 699 l 598 697 q 596 695 598 696 q 593 693 595 694 l 593 693 l 582 690 q 552 676 565 686 q 529 651 539 666 q 511 615 519 636 l 511 615 m 248 27 l 248 258 l 362 264 l 362 28 q 366 18 362 21 q 379 13 370 15 l 379 13 l 424 7 q 430 3 430 5 l 430 3 q 429 1 430 2 q 425 0 428 0 l 425 0 l 184 0 q 181 1 182 0 q 180 3 180 2 l 180 3 q 185 7 180 6 l 185 7 l 230 13 q 244 18 240 15 q 248 27 248 21 l 248 27"},"Z":{"ha":559,"x_min":19,"x_max":539,"o":"m 538 696 l 538 696 l 142 3 l 139 8 l 351 8 q 401 14 380 8 q 440 38 422 21 q 477 88 458 55 q 520 173 496 120 l 520 173 l 529 192 q 531 195 530 194 q 534 196 533 196 l 534 196 q 536 194 536 195 q 536 190 537 192 l 536 190 l 507 -2 q 505 -8 506 -6 q 502 -10 504 -10 l 502 -10 q 496 -8 500 -10 q 485 -2 491 -5 q 470 0 478 0 l 470 0 l 22 0 q 20 1 21 0 q 19 3 19 2 l 19 3 q 20 5 19 4 q 21 6 20 6 l 21 6 l 417 697 l 419 692 l 218 692 q 158 681 183 692 q 112 641 133 669 q 66 563 90 613 l 66 563 l 53 532 q 49 527 51 528 q 46 527 48 526 l 46 527 q 44 529 44 527 q 44 534 43 531 l 44 534 l 74 703 q 75 708 74 707 q 79 710 77 710 l 79 710 q 85 707 81 710 q 96 703 90 705 q 109 700 102 700 l 109 700 l 537 700 q 538 700 538 700 q 539 699 539 700 l 539 699 q 539 698 539 698 q 538 696 539 697"},"[":{"ha":295,"x_min":81,"x_max":288,"o":"m 168 709 l 168 709 l 168 -97 q 169 -102 168 -100 q 174 -103 171 -103 l 174 -103 l 282 -103 q 288 -107 288 -103 l 288 -107 q 286 -111 288 -109 q 282 -112 285 -112 l 282 -112 l 90 -112 q 83 -109 85 -112 q 81 -102 81 -107 l 81 -102 l 81 714 q 83 722 81 719 q 90 724 85 724 l 90 724 l 282 724 q 286 723 285 724 q 288 720 288 722 l 288 720 q 282 716 288 716 l 282 716 l 174 716 q 169 714 171 716 q 168 709 168 713"},"\\":{"ha":317,"x_min":9,"x_max":284,"o":"m 143 304 l 143 304 q 158 256 149 288 q 179 185 168 225 q 203 103 191 146 q 228 19 216 60 q 251 -56 241 -22 q 267 -109 261 -89 l 267 -109 q 271 -115 269 -113 q 278 -116 274 -117 l 278 -116 q 283 -112 282 -115 q 283 -104 284 -109 l 283 -104 q 267 -55 277 -87 q 244 17 257 -23 q 217 100 231 57 q 190 184 203 144 q 167 257 177 225 q 151 306 157 289 l 151 306 q 135 356 145 324 q 113 430 125 389 q 88 516 101 472 q 63 601 75 560 q 41 675 51 642 q 26 724 31 707 l 26 724 q 21 730 24 728 q 14 731 18 732 l 14 731 q 10 726 11 730 q 10 719 9 723 l 10 719 q 27 665 17 698 q 52 590 38 631 q 79 505 65 549 q 105 422 93 462 q 128 351 118 382 q 143 304 138 320"},"]":{"ha":295,"x_min":7,"x_max":214,"o":"m 127 -97 l 127 -97 l 127 709 q 126 714 127 712 q 121 716 124 716 l 121 716 l 13 716 q 7 720 7 716 l 7 720 q 9 723 7 722 q 13 724 10 724 l 13 724 l 205 724 q 212 722 210 724 q 214 714 214 719 l 214 714 l 214 -102 q 212 -109 214 -107 q 205 -112 210 -112 l 205 -112 l 13 -112 q 9 -111 10 -112 q 7 -107 7 -109 l 7 -107 q 13 -103 7 -103 l 13 -103 l 121 -103 q 126 -102 124 -103 q 127 -97 127 -100"},"^":{"ha":298,"x_min":13,"x_max":286,"o":"m 21 419 l 158 707 l 149 707 l 277 417 q 280 414 278 415 q 283 413 282 413 l 283 413 q 285 414 285 413 q 285 419 286 416 l 285 419 l 163 701 q 159 709 161 707 q 154 710 157 710 l 154 710 q 149 709 151 710 q 144 701 147 707 l 144 701 l 14 421 q 13 416 13 418 q 16 414 13 414 l 16 414 q 18 415 17 414 q 21 419 20 416 l 21 419"},"_":{"ha":340,"x_min":0,"x_max":340,"o":"m 0 -148 l 0 -148 q 2 -141 0 -142 q 10 -139 4 -139 l 10 -139 l 331 -139 q 338 -141 336 -139 q 340 -148 340 -142 l 340 -148 q 338 -155 340 -153 q 331 -156 336 -156 l 331 -156 l 10 -156 q 2 -155 4 -156 q 0 -148 0 -153"},"`":{"ha":216,"x_min":26,"x_max":165,"o":"m 116 590 l 116 590 l 164 483 q 165 480 164 481 q 164 478 165 479 l 164 478 q 161 477 163 477 q 159 478 160 477 l 159 478 l 66 549 q 38 574 49 561 q 26 607 26 588 l 26 607 q 35 630 26 619 q 63 641 45 641 l 63 641 q 93 627 81 641 q 116 590 106 614"},"a":{"ha":439,"x_min":25,"x_max":428,"o":"m 282 46 l 282 46 l 282 50 l 278 46 l 278 354 q 261 418 278 396 q 211 440 244 440 l 211 440 q 157 423 175 440 q 140 385 140 405 l 140 385 l 140 349 q 125 312 140 327 q 88 298 111 298 l 88 298 q 60 309 71 298 q 49 341 49 319 l 49 341 q 69 390 49 366 q 127 430 89 415 q 223 446 166 446 l 223 446 q 338 413 300 446 q 376 319 376 379 l 376 319 l 376 55 q 383 27 376 36 q 399 19 389 19 l 399 19 q 415 24 408 19 q 424 42 422 30 l 424 42 q 424 44 424 43 q 426 45 425 45 l 426 45 q 428 44 427 45 q 428 42 428 43 l 428 42 q 421 21 428 33 q 396 1 413 10 q 352 -8 380 -8 l 352 -8 q 299 7 316 -8 q 282 46 282 22 m 25 96 l 25 96 q 68 181 25 149 q 202 214 111 214 l 202 214 q 257 208 235 214 q 298 192 280 201 l 298 192 l 295 188 q 256 202 276 197 q 211 207 236 207 l 211 207 q 146 181 169 207 q 123 111 123 156 l 123 111 q 145 44 123 68 q 201 20 166 20 l 201 20 q 248 30 225 20 q 287 61 271 41 l 287 61 l 292 58 q 232 8 270 26 q 150 -9 194 -9 l 150 -9 q 59 21 94 -9 q 25 96 25 50"},"b":{"ha":490,"x_min":1,"x_max":465,"o":"m 146 733 l 146 733 l 146 40 l 60 -2 q 56 -4 58 -3 q 53 -5 55 -5 l 53 -5 q 49 -4 51 -5 q 48 -1 48 -3 l 48 -1 l 48 688 q 47 692 48 691 q 42 694 46 694 l 42 694 l 5 694 q 2 695 3 694 q 1 697 1 696 l 1 697 q 2 699 1 699 q 5 701 4 700 l 5 701 l 132 736 q 138 738 137 738 q 141 738 140 738 l 141 738 q 145 736 144 738 q 146 733 146 735 m 139 360 l 139 360 l 134 365 q 207 428 173 410 q 283 446 242 446 l 283 446 q 377 419 336 446 q 442 345 418 393 q 465 230 465 296 l 465 230 q 439 104 465 158 q 367 20 413 50 q 260 -10 321 -10 l 260 -10 q 176 11 210 -10 q 122 67 143 32 l 122 67 l 130 71 q 173 22 146 40 q 237 4 200 4 l 237 4 q 301 26 272 4 q 348 96 331 48 q 365 220 365 144 l 365 220 q 350 335 365 289 q 310 403 336 381 q 250 426 284 426 l 250 426 q 195 410 224 426 q 139 360 167 395"},"c":{"ha":408,"x_min":20,"x_max":393,"o":"m 393 334 l 393 334 q 380 297 393 311 q 345 283 367 283 l 345 283 q 309 297 323 283 q 296 338 296 312 l 296 338 l 296 370 q 277 420 296 401 q 225 439 258 439 l 225 439 q 166 416 191 439 q 127 353 141 394 q 113 258 113 313 l 113 258 q 133 145 113 191 q 186 76 152 100 q 263 53 220 53 l 263 53 q 342 75 309 53 q 388 143 375 97 l 388 143 q 389 146 389 145 q 391 146 390 147 l 391 146 q 393 145 392 146 q 393 142 393 144 l 393 142 q 358 60 383 94 q 296 9 333 26 q 213 -9 260 -9 l 213 -9 q 115 16 158 -9 q 46 90 71 41 q 20 210 20 139 l 20 210 q 47 330 20 277 q 122 415 74 383 q 234 446 171 446 l 234 446 q 320 431 285 446 q 374 391 356 416 q 393 334 393 365"},"d":{"ha":494,"x_min":24,"x_max":489,"o":"m 344 16 l 344 61 l 344 63 l 344 688 q 343 692 344 691 q 338 694 342 694 l 338 694 l 301 694 q 298 695 299 694 q 297 697 297 696 l 297 697 q 298 699 297 699 q 301 701 300 700 l 301 701 l 428 736 q 434 738 433 738 q 437 738 436 738 l 437 738 q 441 736 440 738 q 442 733 442 735 l 442 733 l 442 26 q 445 16 442 20 q 454 12 448 13 l 454 12 l 484 7 q 488 6 487 7 q 489 3 489 5 l 489 3 q 488 1 489 2 q 485 0 487 0 l 485 0 l 358 0 q 348 4 351 0 q 344 16 344 8 l 344 16 m 24 206 l 24 206 q 52 334 24 281 q 127 417 81 388 q 230 446 174 446 l 230 446 q 313 425 280 446 q 368 369 347 404 l 368 369 l 360 365 q 316 414 344 396 q 251 433 289 433 l 251 433 q 187 410 216 433 q 141 340 158 388 q 124 216 124 292 l 124 216 q 138 103 124 148 q 179 35 153 58 q 240 13 206 13 l 240 13 q 295 28 266 13 q 351 76 324 42 l 351 76 l 356 71 q 283 8 317 26 q 207 -10 248 -10 l 207 -10 q 113 16 154 -10 q 48 91 72 43 q 24 206 24 140"},"e":{"ha":423,"x_min":20,"x_max":405,"o":"m 405 262 l 405 262 q 402 256 405 258 q 394 254 399 254 l 394 254 l 86 254 l 86 261 l 299 261 q 307 270 307 261 l 307 270 q 281 397 307 355 q 217 439 255 439 l 217 439 q 160 418 183 439 q 123 356 136 397 q 110 254 110 315 l 110 254 q 154 98 110 151 q 268 46 198 46 l 268 46 q 354 74 319 46 q 396 153 390 103 l 396 153 q 397 156 396 155 q 399 157 398 157 l 399 157 q 401 156 400 157 q 402 152 402 155 l 402 152 q 373 69 398 106 q 308 11 348 32 q 219 -10 269 -10 l 219 -10 q 115 17 160 -10 q 45 93 70 44 q 20 209 20 142 l 20 209 q 45 332 20 278 q 118 416 71 385 q 228 446 165 446 l 228 446 q 321 422 282 446 q 383 357 361 399 q 405 262 405 316"},"f":{"ha":264,"x_min":10,"x_max":272,"o":"m 175 427 l 175 27 q 178 18 175 22 q 187 14 181 15 l 187 14 l 245 7 q 249 6 248 7 q 251 3 251 5 l 251 3 q 247 0 251 0 l 247 0 l 28 0 q 26 1 27 0 q 25 3 25 2 l 25 3 q 26 5 25 4 q 30 6 28 6 l 30 6 l 69 13 q 77 17 74 14 q 80 24 80 20 l 80 24 l 80 409 q 78 415 80 412 q 73 418 76 418 l 73 418 l 13 429 q 11 430 12 430 q 10 433 10 431 l 10 433 q 11 435 10 434 q 13 436 12 436 l 13 436 l 86 436 l 81 432 l 81 440 q 74 472 81 456 q 59 506 68 489 q 43 545 50 524 q 37 590 37 565 l 37 590 q 72 681 37 648 q 164 715 107 715 l 164 715 q 224 703 200 715 q 260 671 248 691 q 272 627 272 651 l 272 627 q 259 589 272 602 q 228 577 247 577 l 228 577 q 195 590 209 577 q 182 627 182 603 l 182 627 l 182 669 q 173 697 182 688 q 145 707 164 707 l 145 707 q 98 688 116 707 q 81 633 81 668 l 81 633 q 91 585 81 608 q 114 542 100 563 q 142 503 128 522 q 165 467 156 485 q 175 434 175 450 l 175 434 l 175 427 l 169 436 l 256 436 q 260 435 259 436 q 261 433 261 435 l 261 433 q 258 428 261 430 q 250 427 255 427 l 250 427 l 175 427"},"g":{"ha":475,"x_min":12,"x_max":479,"o":"m 306 9 l 306 9 q 216 37 246 26 q 176 58 186 49 q 167 81 167 68 l 167 81 q 176 101 167 92 q 198 115 185 110 l 198 115 l 198 119 q 134 99 158 111 q 100 71 110 87 q 90 35 90 55 l 90 35 q 104 -3 90 13 q 154 -32 119 -19 q 251 -62 189 -46 l 251 -62 q 332 -87 304 -74 q 371 -116 360 -100 q 382 -151 382 -132 l 382 -151 q 367 -198 382 -179 q 322 -227 352 -217 q 246 -237 292 -237 l 246 -237 q 121 -202 162 -237 q 80 -109 80 -166 l 80 -109 q 103 -60 80 -81 q 172 -31 126 -38 l 172 -31 l 171 -25 q 48 -65 85 -37 q 12 -134 12 -93 l 12 -134 q 36 -192 12 -166 q 111 -231 60 -217 q 241 -246 162 -246 l 241 -246 q 403 -208 346 -246 q 460 -110 460 -170 l 460 -110 q 447 -58 460 -80 q 400 -21 434 -37 q 306 9 367 -5 m 315 427 l 311 420 l 318 420 q 340 450 329 439 q 366 462 352 462 l 366 462 q 384 453 376 462 q 399 434 392 445 q 416 415 407 423 q 439 406 426 406 l 439 406 q 469 418 459 406 q 479 450 479 430 l 479 450 q 462 492 479 476 q 416 509 445 509 l 416 509 q 358 486 382 509 q 315 427 334 464 l 315 427 m 426 281 l 426 281 q 402 364 426 326 q 336 424 379 401 q 235 446 293 446 l 235 446 q 128 423 173 446 q 58 361 83 400 q 34 272 34 321 l 34 272 q 59 190 34 227 q 127 132 83 154 q 230 110 171 110 l 230 110 q 330 132 285 110 q 400 193 374 154 q 426 281 426 232 m 212 437 l 212 437 q 290 393 259 438 q 326 272 321 348 l 326 272 q 308 163 331 204 q 245 121 285 122 l 245 121 q 190 140 215 120 q 150 198 166 161 q 131 284 135 235 l 131 284 q 138 363 128 329 q 167 416 148 397 q 212 437 186 436"},"h":{"ha":503,"x_min":18,"x_max":509,"o":"m 164 733 l 164 733 l 164 26 q 167 16 164 20 q 176 12 170 13 l 176 12 l 207 7 q 212 3 212 6 l 212 3 q 208 0 212 0 l 208 0 l 21 0 q 19 1 20 0 q 18 3 18 2 l 18 3 q 20 5 18 4 q 25 7 21 7 l 25 7 l 54 12 q 63 16 61 13 q 66 26 66 20 l 66 26 l 66 688 q 65 692 66 691 q 60 694 64 694 l 60 694 l 23 694 q 20 695 21 694 q 19 697 19 696 l 19 697 q 20 699 19 699 q 23 701 22 700 l 23 701 l 151 736 q 156 738 155 738 q 159 738 158 738 l 159 738 q 163 736 162 738 q 164 733 164 735 m 173 360 l 156 345 l 152 349 l 169 365 q 252 427 217 409 q 318 446 286 446 l 318 446 q 389 416 364 446 q 424 324 415 386 l 424 324 l 462 30 q 467 17 463 22 q 479 11 471 12 l 479 11 l 505 6 q 508 5 507 6 q 509 3 509 4 l 509 3 q 508 1 509 2 q 505 0 507 0 l 505 0 l 316 0 q 311 3 311 0 l 311 3 q 317 7 311 6 l 317 7 l 348 12 q 360 18 357 13 q 362 30 363 23 l 362 30 l 327 314 q 305 381 321 360 q 258 402 289 402 l 258 402 q 217 392 237 402 q 173 360 197 382 l 173 360"},"i":{"ha":227,"x_min":21,"x_max":214,"o":"m 167 439 l 167 439 l 167 26 q 170 16 167 20 q 179 12 173 13 l 179 12 l 209 7 q 213 6 212 7 q 214 3 214 5 l 214 3 q 213 1 214 2 q 210 0 212 0 l 210 0 l 24 0 q 22 1 23 0 q 21 3 21 2 l 21 3 q 22 5 21 4 q 25 6 23 6 l 25 6 l 57 12 q 66 16 64 13 q 69 26 69 20 l 69 26 l 69 394 q 68 398 69 397 q 63 400 66 400 l 63 400 l 26 400 q 23 401 24 400 q 22 403 22 402 l 22 403 q 23 405 22 405 q 26 407 24 406 l 26 407 l 153 442 q 159 444 157 444 q 162 444 161 444 l 162 444 q 166 442 165 444 q 167 439 167 441 m 116 519 l 116 519 q 72 537 89 519 q 56 581 56 555 l 56 581 q 72 626 56 608 q 116 644 89 644 l 116 644 q 159 626 142 644 q 177 581 177 608 l 177 581 q 159 537 177 555 q 116 519 142 519"},"j":{"ha":227,"x_min":-9,"x_max":206,"o":"m 167 438 l 167 62 q 173 6 167 31 q 186 -40 179 -18 q 200 -83 194 -61 q 206 -129 206 -104 l 206 -129 q 178 -199 206 -172 q 102 -226 151 -226 l 102 -226 q 42 -215 67 -226 q 4 -185 17 -204 q -9 -143 -9 -166 l -9 -143 q 3 -105 -9 -118 q 36 -92 16 -92 l 36 -92 q 69 -106 56 -92 q 82 -143 82 -120 l 82 -143 l 82 -180 q 90 -209 82 -199 q 113 -218 98 -218 l 113 -218 q 147 -204 135 -218 q 159 -161 159 -189 l 159 -161 q 150 -117 159 -138 q 127 -76 141 -95 q 100 -36 114 -56 q 78 5 87 -16 q 69 51 69 27 l 69 51 l 69 394 q 68 399 69 397 q 63 400 66 400 l 63 400 l 26 400 q 23 401 24 400 q 22 403 22 402 l 22 403 q 23 405 22 405 q 26 407 24 406 l 26 407 l 152 442 q 158 444 156 443 q 162 444 160 444 l 162 444 q 165 442 164 444 q 167 438 167 441 l 167 438 m 116 519 l 116 519 q 72 537 89 519 q 56 581 56 555 l 56 581 q 72 626 56 608 q 116 644 89 644 l 116 644 q 159 626 142 644 q 177 581 177 608 l 177 581 q 159 537 177 555 q 116 519 142 519"},"k":{"ha":488,"x_min":18,"x_max":493,"o":"m 208 0 l 21 0 q 19 1 20 0 q 18 3 18 2 l 18 3 q 20 5 18 4 q 25 7 21 7 l 25 7 l 54 12 q 63 16 61 13 q 66 26 66 20 l 66 26 l 66 688 q 65 692 66 691 q 60 694 64 694 l 60 694 l 23 694 q 20 695 21 694 q 19 697 19 696 l 19 697 q 20 699 19 699 q 23 701 22 700 l 23 701 l 151 736 q 156 738 155 738 q 159 738 158 738 l 159 738 q 163 736 162 738 q 164 733 164 735 l 164 733 l 164 26 q 167 16 164 20 q 176 12 170 13 l 176 12 l 207 7 q 212 3 212 6 l 212 3 q 208 0 212 0 l 208 0 m 153 161 l 148 167 l 344 365 q 360 404 365 386 q 330 426 356 421 l 330 426 l 310 429 q 306 430 307 430 q 305 433 305 431 l 305 433 q 306 435 305 434 q 310 436 308 436 l 310 436 l 474 436 q 477 435 476 436 q 479 433 479 434 l 479 433 q 477 430 479 431 q 472 429 476 429 l 472 429 q 409 406 439 423 q 351 362 378 390 l 351 362 l 153 161 m 221 234 l 290 306 l 447 36 q 464 16 455 22 q 488 7 473 10 l 488 7 q 492 5 491 6 q 493 3 493 4 l 493 3 q 492 1 493 2 q 489 0 491 0 l 489 0 l 292 0 q 290 1 291 0 q 289 3 289 2 l 289 3 q 290 5 289 4 q 294 7 291 7 l 294 7 l 317 10 q 332 19 329 12 q 329 37 336 26 l 329 37 l 221 234"},"l":{"ha":231,"x_min":23,"x_max":217,"o":"m 169 733 l 169 733 l 169 26 q 172 16 169 20 q 181 12 175 13 l 181 12 l 212 7 q 216 6 215 7 q 217 3 217 5 l 217 3 q 216 1 217 2 q 213 0 215 0 l 213 0 l 26 0 q 24 1 25 0 q 23 3 23 2 l 23 3 q 25 5 23 4 q 30 7 26 7 l 30 7 l 59 12 q 68 16 66 13 q 71 26 71 20 l 71 26 l 71 688 q 70 692 71 691 q 65 694 69 694 l 65 694 l 28 694 q 25 695 26 694 q 24 697 24 696 l 24 697 q 25 699 24 699 q 28 701 27 700 l 28 701 l 156 736 q 161 738 160 738 q 164 738 163 738 l 164 738 q 168 736 167 738 q 169 733 169 735"},"m":{"ha":779,"x_min":18,"x_max":781,"o":"m 164 438 l 164 438 l 164 26 q 167 16 164 20 q 177 11 171 12 l 177 11 l 207 7 q 212 3 212 6 l 212 3 q 207 0 212 0 l 207 0 l 22 0 q 19 1 20 0 q 18 3 18 2 l 18 3 q 19 5 18 4 q 23 7 21 6 l 23 7 l 54 12 q 63 16 61 13 q 66 24 66 20 l 66 24 l 66 393 q 65 398 66 396 q 61 400 64 400 l 61 400 l 22 400 q 20 401 21 400 q 19 403 19 402 l 19 403 q 20 405 19 404 q 23 407 21 406 l 23 407 l 151 443 q 156 444 154 444 q 159 444 158 444 l 159 444 q 163 442 162 444 q 164 438 164 440 m 172 360 l 156 345 l 151 348 l 168 364 q 257 428 218 411 q 330 446 296 446 l 330 446 q 413 415 381 446 q 445 318 445 384 l 445 318 l 445 27 q 449 15 445 20 q 460 10 453 11 l 460 10 l 483 7 q 487 3 487 6 l 487 3 q 482 0 487 0 l 482 0 l 303 0 q 299 3 299 0 l 299 3 q 304 7 299 6 l 304 7 l 333 11 q 345 18 342 13 q 348 32 348 24 l 348 32 l 348 308 q 325 378 348 355 q 266 402 302 402 l 266 402 q 219 392 242 402 q 172 360 196 383 l 172 360 m 448 361 l 433 345 l 428 348 l 444 366 q 517 427 483 409 q 587 446 551 446 l 587 446 q 662 415 633 446 q 700 318 691 384 l 700 318 l 739 28 q 743 15 740 20 q 755 10 747 11 l 755 10 l 777 6 q 780 5 779 6 q 781 3 781 4 l 781 3 q 780 1 781 2 q 777 0 779 0 l 777 0 l 593 0 q 589 3 589 0 l 589 3 q 594 7 589 6 l 594 7 l 623 11 q 636 18 632 12 q 638 33 639 25 l 638 33 l 604 308 q 579 378 597 355 q 528 402 561 402 l 528 402 q 488 392 507 402 q 448 361 469 382 l 448 361"},"n":{"ha":504,"x_min":18,"x_max":509,"o":"m 164 439 l 164 439 l 164 26 q 167 16 164 20 q 176 12 170 13 l 176 12 l 207 7 q 212 3 212 6 l 212 3 q 208 0 212 0 l 208 0 l 21 0 q 19 1 20 0 q 18 3 18 2 l 18 3 q 19 5 18 4 q 22 6 20 6 l 22 6 l 54 12 q 63 16 61 13 q 66 26 66 20 l 66 26 l 66 394 q 65 398 66 397 q 60 400 64 400 l 60 400 l 23 400 q 20 401 21 400 q 19 403 19 402 l 19 403 q 20 405 19 405 q 23 407 22 406 l 23 407 l 151 442 q 156 444 155 444 q 159 444 158 444 l 159 444 q 163 442 162 444 q 164 439 164 441 m 173 360 l 156 345 l 152 349 l 169 365 q 252 427 217 409 q 318 446 286 446 l 318 446 q 389 416 364 446 q 424 324 415 386 l 424 324 l 462 30 q 467 17 463 22 q 479 11 471 12 l 479 11 l 505 6 q 508 5 507 6 q 509 3 509 4 l 509 3 q 508 1 509 2 q 505 0 507 0 l 505 0 l 316 0 q 311 3 311 0 l 311 3 q 317 7 311 6 l 317 7 l 348 12 q 360 18 357 13 q 362 30 363 23 l 362 30 l 327 314 q 305 381 321 360 q 258 402 289 402 l 258 402 q 217 392 237 402 q 173 360 197 382 l 173 360"},"o":{"ha":488,"x_min":22,"x_max":466,"o":"m 246 446 l 246 446 q 359 416 310 446 q 438 335 409 387 q 466 216 466 284 l 466 216 q 437 98 466 149 q 357 19 408 48 q 241 -10 306 -10 l 241 -10 q 127 19 177 -10 q 50 98 78 47 q 22 216 22 149 l 22 216 q 50 335 22 284 q 129 416 79 387 q 246 446 180 446 m 269 -2 l 269 -2 q 328 29 305 1 q 361 107 352 56 q 363 229 371 157 l 363 229 q 335 350 355 302 q 286 419 316 397 q 219 438 256 441 l 219 438 q 159 406 182 435 q 127 328 135 378 q 126 207 119 277 l 126 207 q 154 88 134 136 q 204 18 174 41 q 269 -2 234 -5"},"p":{"ha":507,"x_min":14,"x_max":482,"o":"m 159 443 l 159 443 l 159 373 l 159 369 l 159 -208 q 162 -218 159 -214 q 171 -223 165 -221 l 171 -223 l 207 -227 q 211 -229 210 -228 q 212 -231 212 -230 l 212 -231 q 211 -233 212 -232 q 208 -234 210 -234 l 208 -234 l 22 -234 q 20 -233 21 -234 q 19 -231 19 -232 l 19 -231 q 20 -229 19 -230 q 25 -227 22 -227 l 25 -227 l 49 -223 q 58 -218 56 -221 q 61 -209 61 -214 l 61 -209 l 61 398 q 60 402 61 401 q 55 404 59 404 l 55 404 l 18 404 q 15 405 16 404 q 14 407 14 406 l 14 407 q 15 409 14 409 q 18 411 17 410 l 18 411 l 146 446 q 151 448 150 448 q 154 448 153 448 l 154 448 q 158 446 157 448 q 159 443 159 445 m 152 356 l 152 356 l 147 361 q 219 425 182 404 q 303 446 256 446 l 303 446 q 395 420 354 446 q 459 345 436 393 q 482 230 482 296 l 482 230 q 455 101 482 156 q 382 18 428 47 q 280 -10 337 -10 l 280 -10 q 198 9 231 -10 q 144 70 165 29 l 144 70 l 151 74 q 193 23 167 41 q 252 5 220 5 l 252 5 q 319 25 289 5 q 365 93 348 46 q 382 216 382 139 l 382 216 q 367 336 382 290 q 325 404 352 382 q 265 426 299 426 l 265 426 q 210 409 240 426 q 152 356 181 393"},"q":{"ha":490,"x_min":24,"x_max":489,"o":"m 485 -234 l 289 -234 q 285 -234 287 -234 q 284 -231 284 -233 l 284 -231 q 285 -229 284 -230 q 289 -227 287 -228 l 289 -227 l 327 -222 q 340 -217 337 -221 q 344 -205 344 -213 l 344 -205 l 344 395 l 430 442 q 434 444 432 443 q 437 445 436 445 l 437 445 q 440 443 439 445 q 442 440 442 442 l 442 440 l 442 -206 q 445 -218 442 -213 q 455 -223 448 -222 l 455 -223 l 484 -227 q 488 -229 487 -228 q 489 -231 489 -230 l 489 -231 q 488 -234 489 -233 q 485 -234 487 -234 l 485 -234 m 354 78 l 358 73 q 293 12 331 34 q 206 -10 256 -10 l 206 -10 q 111 16 152 -10 q 47 90 70 43 q 24 202 24 138 l 24 202 q 51 328 24 273 q 125 415 78 383 q 231 446 172 446 l 231 446 q 310 429 280 446 q 357 379 341 412 l 357 379 l 350 375 q 314 418 336 403 q 254 434 292 434 l 254 434 q 186 411 216 434 q 140 342 157 389 q 124 222 124 296 l 124 222 q 139 104 124 151 q 181 35 154 57 q 247 12 208 12 l 247 12 q 303 29 275 12 q 354 78 331 45 l 354 78"},"r":{"ha":369,"x_min":19,"x_max":362,"o":"m 165 240 l 159 243 q 178 355 159 310 q 226 423 197 400 q 287 446 256 446 l 287 446 q 343 424 323 446 q 362 363 362 402 l 362 363 q 348 316 362 332 q 311 301 333 301 l 311 301 q 280 313 291 301 q 269 347 270 324 l 269 347 l 269 362 q 262 387 268 379 q 239 396 255 396 l 239 396 q 204 378 221 396 q 176 326 187 361 q 165 240 165 292 l 165 240 m 165 436 l 165 436 l 165 266 l 165 29 q 168 19 165 23 q 177 14 171 15 l 177 14 l 227 7 q 230 5 229 6 q 231 3 231 5 l 231 3 q 230 1 231 2 q 227 0 229 0 l 227 0 l 23 0 q 20 1 21 0 q 19 3 19 2 l 19 3 q 20 6 19 5 q 25 7 22 7 l 25 7 l 55 12 q 64 16 61 13 q 67 24 67 20 l 67 24 l 67 396 q 65 400 67 398 q 61 402 64 402 l 61 402 l 23 402 q 20 403 22 402 q 19 405 19 404 l 19 405 q 20 408 19 407 q 24 409 22 409 l 24 409 l 151 440 q 156 441 155 441 q 160 442 158 442 l 160 442 q 164 440 163 442 q 165 436 165 438"},"s":{"ha":380,"x_min":25,"x_max":352,"o":"m 201 -1 l 201 -1 q 260 19 238 -1 q 282 71 282 39 l 282 71 q 272 110 282 93 q 238 142 262 127 q 173 170 215 156 l 173 170 q 85 210 117 188 q 38 259 52 232 q 25 322 25 287 l 25 322 q 65 414 25 382 q 174 447 106 447 l 174 447 q 223 441 204 447 q 253 430 243 436 q 266 424 263 424 l 266 424 q 282 430 271 424 q 303 441 293 436 q 317 447 314 447 l 317 447 q 320 447 319 447 q 322 443 322 446 l 322 443 l 351 304 q 352 298 352 300 q 350 295 351 296 l 350 295 q 347 295 348 294 q 344 297 345 296 l 344 297 q 293 381 319 350 q 239 426 267 413 q 177 440 211 440 l 177 440 q 114 419 137 440 q 91 365 91 399 l 91 365 q 100 325 91 343 q 136 293 110 308 q 208 265 162 278 l 208 265 q 290 228 259 250 q 336 179 322 207 q 350 117 350 152 l 350 117 q 331 50 350 79 q 281 6 313 22 q 208 -9 249 -9 l 208 -9 q 161 -1 181 -9 q 129 15 141 7 q 114 23 117 23 l 114 23 q 102 16 111 23 q 84 1 93 8 q 71 -7 74 -7 l 71 -7 q 67 -5 69 -7 q 64 1 65 -3 l 64 1 l 40 122 q 40 129 40 127 q 42 132 40 131 l 42 132 q 44 132 43 133 q 46 130 46 132 l 46 130 q 123 28 84 58 q 201 -1 163 -1"},"t":{"ha":286,"x_min":8,"x_max":279,"o":"m 58 421 l 58 421 l 12 429 q 8 430 9 430 q 8 433 8 431 l 8 433 q 8 435 8 434 q 10 436 9 436 l 10 436 l 56 436 q 62 437 60 436 q 66 441 64 438 l 66 441 l 145 533 q 149 537 147 535 q 154 538 152 538 l 154 538 q 158 536 156 538 q 159 532 159 535 l 159 532 l 159 105 q 174 47 159 66 q 216 28 189 28 l 216 28 q 234 31 225 28 q 250 39 243 34 q 264 55 258 45 q 274 78 270 64 l 274 78 q 277 80 275 80 q 278 77 279 80 l 278 77 q 256 29 270 48 q 223 1 243 10 q 175 -8 203 -8 l 175 -8 q 94 17 123 -8 q 65 94 65 42 l 65 94 l 65 411 q 63 418 65 415 q 58 421 62 420 m 267 427 l 128 427 l 131 436 l 274 436 q 278 435 277 436 q 279 432 279 434 l 279 432 q 276 428 279 430 q 267 427 273 427 l 267 427"},"u":{"ha":503,"x_min":17,"x_max":491,"o":"m 346 16 l 346 16 l 346 79 l 346 81 l 346 393 q 344 397 346 396 q 340 399 343 399 l 340 399 l 303 399 q 300 400 301 399 q 299 402 299 401 l 299 402 q 300 404 299 404 q 303 406 301 405 l 303 406 l 430 441 q 435 443 434 443 q 439 443 437 443 l 439 443 q 442 441 441 443 q 444 438 444 440 l 444 438 l 444 26 q 447 16 444 20 q 456 12 450 13 l 456 12 l 486 7 q 490 6 489 7 q 491 3 491 5 l 491 3 q 490 1 491 2 q 487 0 489 0 l 487 0 l 360 0 q 349 4 353 0 q 346 16 346 8 m 64 120 l 64 120 l 64 393 q 63 397 64 396 q 58 399 61 399 l 58 399 l 20 399 q 18 400 19 399 q 17 402 17 401 l 17 402 q 18 404 17 404 q 21 406 19 405 l 21 406 l 148 441 q 154 443 152 443 q 157 443 156 443 l 157 443 q 161 441 160 443 q 162 438 162 440 l 162 438 l 162 130 q 184 58 162 81 q 244 36 207 36 l 244 36 q 291 46 267 36 q 339 78 315 56 l 339 78 l 356 93 l 360 89 l 343 73 q 254 10 293 28 q 180 -8 215 -8 l 180 -8 q 97 23 130 -8 q 64 120 64 55"},"v":{"ha":432,"x_min":-6,"x_max":446,"o":"m 240 -1 l 240 -1 l 201 -1 q 195 0 198 -1 q 192 6 193 2 l 192 6 l 43 399 q 35 416 40 409 q 21 424 30 423 l 21 424 l 0 429 q -5 430 -3 430 q -6 433 -6 431 l -6 433 q -5 435 -6 435 q -3 436 -4 436 l -3 436 l 204 436 q 208 433 208 436 l 208 433 q 207 430 208 431 q 203 429 206 430 l 203 429 l 178 424 q 147 411 152 419 q 148 388 142 404 l 148 388 l 265 68 l 248 34 l 371 378 q 372 409 378 397 q 341 424 365 420 l 341 424 l 314 429 q 310 430 311 430 q 309 433 309 431 l 309 433 q 310 435 309 435 q 313 436 311 436 l 313 436 l 443 436 q 445 435 445 436 q 446 433 446 435 l 446 433 q 445 430 446 431 q 440 429 444 430 l 440 429 l 422 425 q 400 412 409 422 q 385 382 392 402 l 385 382 l 249 5 q 245 0 248 2 q 240 -1 243 -1"},"w":{"ha":667,"x_min":-7,"x_max":677,"o":"m 219 0 l 219 0 l 181 0 q 175 2 177 0 q 172 7 173 3 l 172 7 l 40 408 q 32 421 37 418 q 18 426 27 425 l 18 426 l -3 430 q -6 431 -5 430 q -7 433 -7 432 l -7 433 q -6 435 -7 435 q -3 436 -5 436 l -3 436 l 195 436 q 198 435 197 436 q 199 433 199 434 l 199 433 q 198 431 199 432 q 194 429 197 430 l 194 429 l 167 425 q 148 415 151 423 q 148 393 144 407 l 148 393 l 248 85 l 228 35 l 340 393 l 347 388 l 227 6 q 224 2 227 3 q 219 0 222 0 m 495 0 l 495 0 l 457 0 q 451 2 453 0 q 448 8 449 4 l 448 8 l 318 405 q 310 420 314 415 q 298 426 305 425 l 298 426 l 281 429 q 276 431 278 430 q 275 433 275 432 l 275 433 q 279 436 275 436 l 279 436 l 474 436 q 478 433 478 436 l 478 433 q 477 430 478 431 q 473 429 476 430 l 473 429 l 441 422 q 423 413 426 419 q 424 397 420 407 l 424 397 l 525 82 l 502 30 l 608 369 q 610 408 616 394 q 585 425 605 422 l 585 425 l 558 429 q 555 431 556 430 q 554 433 554 432 l 554 433 q 555 435 554 435 q 557 436 556 436 l 557 436 l 672 436 q 676 435 675 436 q 677 433 677 434 l 677 433 q 676 430 677 431 q 672 429 675 430 l 672 429 l 660 425 q 635 406 646 420 q 617 368 625 392 l 617 368 l 504 7 q 500 2 503 3 q 495 0 498 0"},"x":{"ha":442,"x_min":3,"x_max":439,"o":"m 81 65 l 180 215 l 186 213 l 88 62 q 81 32 75 43 q 105 15 86 21 l 105 15 l 126 8 q 130 6 129 7 q 132 4 132 6 l 132 4 q 131 2 132 3 q 127 1 130 1 l 127 1 l 9 1 q 4 2 6 1 q 3 4 3 3 l 3 4 q 4 7 3 6 q 10 9 6 9 l 10 9 q 37 18 25 11 q 59 36 48 24 q 81 65 69 48 l 81 65 m 161 396 l 161 396 l 263 239 l 265 237 l 388 48 q 413 18 401 28 q 436 8 425 9 l 436 8 q 438 7 438 8 q 439 4 439 6 l 439 4 q 438 1 439 2 q 434 0 437 0 l 434 0 l 236 0 q 232 1 234 0 q 230 4 230 2 l 230 4 q 231 7 230 6 q 235 8 233 8 l 235 8 l 273 14 q 288 24 285 16 q 282 47 291 32 l 282 47 l 179 205 l 177 207 l 53 400 q 34 420 45 414 q 14 427 24 426 l 14 427 q 9 429 10 427 q 7 432 7 430 l 7 432 q 9 435 7 434 q 13 436 11 436 l 13 436 l 203 436 q 206 435 205 436 q 207 432 207 434 l 207 432 q 206 430 207 431 q 203 429 206 429 l 203 429 l 170 424 q 158 414 162 422 q 161 396 155 407 m 352 371 l 258 224 l 254 229 l 342 367 q 350 406 355 390 q 327 425 346 422 l 327 425 l 301 429 q 298 430 299 430 q 297 433 297 431 l 297 433 q 298 435 297 434 q 301 436 299 436 l 301 436 l 421 436 q 424 435 423 436 q 425 432 425 434 l 425 432 q 423 430 425 431 q 418 428 422 429 l 418 428 q 380 410 392 424 q 352 371 368 397 l 352 371"},"y":{"ha":448,"x_min":-7,"x_max":458,"o":"m 156 390 l 276 92 l 228 -33 l 61 368 q 34 411 49 397 q -1 429 18 426 l -1 429 q -6 431 -5 430 q -7 433 -7 432 l -7 433 q -6 435 -7 435 q -3 436 -5 436 l -3 436 l 205 436 q 208 435 208 436 q 209 432 209 434 l 209 432 q 208 430 209 431 q 205 429 207 429 l 205 429 l 167 424 q 152 413 155 422 q 156 390 150 404 l 156 390 m 188 -124 l 188 -124 l 242 14 l 248 30 l 381 371 q 385 408 390 397 q 362 423 380 420 l 362 423 l 333 428 q 328 430 330 429 q 327 432 327 431 l 327 432 q 328 435 327 434 q 331 436 329 436 l 331 436 l 454 436 q 457 435 456 436 q 458 432 458 434 l 458 432 q 457 430 458 431 q 453 429 456 429 l 453 429 q 413 412 428 425 q 388 372 398 399 l 388 372 l 193 -130 q 165 -195 177 -170 q 138 -233 153 -221 q 95 -245 122 -245 l 95 -245 q 39 -224 61 -245 q 18 -174 18 -204 l 18 -174 q 29 -141 18 -153 q 58 -129 41 -129 l 58 -129 q 82 -139 73 -129 q 96 -167 92 -149 l 96 -167 l 101 -185 q 110 -210 104 -199 q 128 -221 117 -221 l 128 -221 q 147 -210 138 -221 q 166 -177 156 -199 q 188 -124 176 -155"},"z":{"ha":398,"x_min":21,"x_max":386,"o":"m 370 424 l 370 424 l 125 5 l 109 7 l 245 7 q 285 15 267 7 q 320 43 303 23 q 359 103 338 64 l 359 103 l 380 144 q 382 146 381 146 q 385 147 383 147 l 385 147 q 386 144 386 146 q 386 139 386 143 l 386 139 l 356 -3 q 355 -9 356 -8 q 353 -10 354 -10 l 353 -10 q 341 -5 349 -10 q 322 0 334 0 l 322 0 l 24 0 q 22 1 23 0 q 21 3 21 2 l 21 3 q 22 6 21 4 q 24 12 23 8 l 24 12 l 272 432 l 289 429 l 146 429 q 114 421 129 429 q 85 395 99 413 q 54 343 70 376 l 54 343 l 34 302 q 31 298 32 299 q 27 297 29 297 l 27 297 q 25 299 26 298 q 25 305 25 301 l 25 305 l 52 436 q 54 442 53 440 q 56 444 55 444 l 56 444 q 67 440 60 444 q 86 436 74 436 l 86 436 l 370 436 q 373 435 372 436 q 374 433 374 435 l 374 433 q 373 429 374 431 q 370 424 372 428"},"{":{"ha":335,"x_min":49,"x_max":309,"o":"m 130 306 l 130 306 q 142 297 130 297 l 142 297 q 226 275 196 297 q 255 220 255 253 l 255 220 q 244 171 255 194 q 218 122 233 147 q 193 71 204 98 q 182 13 182 44 l 182 13 q 211 -70 182 -37 q 291 -103 240 -103 l 291 -103 l 304 -103 q 309 -107 309 -103 l 309 -107 q 308 -111 309 -109 q 304 -112 306 -112 l 304 -112 l 264 -112 q 170 -94 210 -112 q 109 -45 131 -76 q 88 27 88 -13 l 88 27 q 100 94 88 65 q 129 149 113 124 q 158 197 146 174 q 171 243 171 220 l 171 243 q 157 277 171 264 q 122 290 144 290 l 122 290 q 107 288 114 290 q 93 282 100 285 q 78 280 87 280 l 78 280 q 57 287 65 280 q 49 306 49 295 l 49 306 q 57 325 49 318 q 78 333 65 333 l 78 333 q 93 330 87 333 q 107 325 100 328 q 122 322 114 322 l 122 322 q 157 336 144 322 q 171 369 171 349 l 171 369 q 158 415 171 393 q 129 463 146 438 q 100 518 113 488 q 88 585 88 548 l 88 585 q 109 657 88 626 q 170 706 131 689 q 264 724 210 724 l 264 724 l 304 724 q 308 723 306 724 q 309 720 309 722 l 309 720 q 304 716 309 716 l 304 716 l 291 716 q 211 683 240 716 q 182 600 182 650 l 182 600 q 193 541 182 568 q 218 490 204 515 q 244 442 233 465 q 255 393 255 418 l 255 393 q 226 337 255 360 q 142 315 196 315 l 142 315 q 130 306 130 315"},"|":{"ha":222,"x_min":100,"x_max":122,"o":"m 106 306 l 106 306 q 105 391 106 339 q 103 501 104 442 q 101 614 102 559 q 100 710 100 670 l 100 710 q 103 720 100 717 q 111 724 106 724 l 111 724 q 119 720 117 724 q 122 710 122 717 l 122 710 q 122 642 122 683 q 120 556 121 602 q 119 463 120 509 q 118 375 118 416 q 117 306 117 335 l 117 306 q 118 217 117 271 q 120 103 119 163 q 121 -10 121 44 q 122 -98 122 -63 l 122 -98 q 119 -108 122 -104 q 111 -112 117 -112 l 111 -112 q 103 -108 106 -112 q 100 -98 100 -104 l 100 -98 q 101 -23 100 -65 q 102 66 101 19 q 104 157 103 112 q 106 241 105 202 q 106 306 106 280"},"}":{"ha":335,"x_min":26,"x_max":287,"o":"m 206 306 l 206 306 q 194 315 206 315 l 194 315 q 110 337 139 315 q 80 393 80 360 l 80 393 q 91 442 80 418 q 117 490 102 465 q 143 541 132 515 q 154 600 154 568 l 154 600 q 124 683 154 650 q 44 716 95 716 l 44 716 l 32 716 q 26 720 26 716 l 26 720 q 28 723 26 722 q 32 724 29 724 l 32 724 l 72 724 q 165 706 126 724 q 226 657 205 689 q 248 585 248 626 l 248 585 q 235 518 248 548 q 206 463 223 488 q 177 415 190 438 q 165 369 165 393 l 165 369 q 178 335 165 349 q 214 322 192 322 l 214 322 q 228 325 222 322 q 242 330 235 327 q 257 333 249 333 l 257 333 q 279 325 271 333 q 287 306 287 317 l 287 306 q 279 287 287 295 q 257 280 271 280 l 257 280 q 242 282 249 280 q 228 287 235 285 q 214 290 222 290 l 214 290 q 178 277 192 290 q 165 243 165 263 l 165 243 q 177 197 165 220 q 206 149 190 174 q 235 94 223 124 q 248 27 248 65 l 248 27 q 226 -45 248 -13 q 165 -94 205 -76 q 72 -112 126 -112 l 72 -112 l 32 -112 q 28 -111 29 -112 q 26 -107 26 -109 l 26 -107 q 32 -103 26 -103 l 32 -103 l 44 -103 q 124 -70 95 -103 q 154 13 154 -37 l 154 13 q 143 71 154 44 q 117 122 132 98 q 91 171 102 147 q 80 220 80 194 l 80 220 q 110 275 80 253 q 194 297 139 297 l 194 297 q 206 306 206 297"},"~":{"ha":482,"x_min":37,"x_max":444,"o":"m 345 294 l 345 294 q 289 310 315 294 q 238 347 263 327 q 189 384 214 368 q 136 400 164 400 l 136 400 q 70 370 94 400 q 44 292 47 341 l 44 292 q 43 289 44 290 q 41 288 42 288 l 41 288 q 37 292 37 288 l 37 292 q 49 350 37 324 q 84 392 62 376 q 136 408 106 408 l 136 408 q 191 391 166 408 q 240 354 217 375 q 290 318 264 334 q 345 302 315 302 l 345 302 q 410 327 383 302 q 437 406 437 352 l 437 406 q 438 410 437 409 q 440 411 439 411 l 440 411 q 444 406 444 411 l 444 406 q 431 344 444 369 q 395 307 418 319 q 345 294 373 294"}}}
